<mxfile host="Electron" agent="Mozilla/5.0 (Macintosh; Intel Mac OS X 10_15_7) AppleWebKit/537.36 (KHTML, like Gecko) draw.io/26.0.9 Chrome/128.0.6613.186 Electron/32.2.5 Safari/537.36" version="26.0.9" pages="2">
  <diagram name="Page-1" id="CEH20qQHbcLtqlR5fmiQ">
    <mxGraphModel dx="2074" dy="1654" grid="0" gridSize="10" guides="1" tooltips="1" connect="1" arrows="1" fold="1" page="0" pageScale="1" pageWidth="827" pageHeight="1169" math="0" shadow="0">
      <root>
        <mxCell id="0" />
        <mxCell id="1" parent="0" />
        <mxCell id="nTLEF9N3Q-XhvltVpLBN-53" style="edgeStyle=orthogonalEdgeStyle;rounded=0;orthogonalLoop=1;jettySize=auto;html=1;" parent="1" source="nTLEF9N3Q-XhvltVpLBN-1" target="nTLEF9N3Q-XhvltVpLBN-20" edge="1">
          <mxGeometry relative="1" as="geometry" />
        </mxCell>
        <mxCell id="nTLEF9N3Q-XhvltVpLBN-1" value="" style="rounded=1;whiteSpace=wrap;html=1;arcSize=8;" parent="1" vertex="1">
          <mxGeometry x="234" y="-405" width="246" height="90" as="geometry" />
        </mxCell>
        <mxCell id="nTLEF9N3Q-XhvltVpLBN-4" value="&lt;h1 style=&quot;margin-top: 0px; font-size: 13px;&quot;&gt;&lt;font style=&quot;font-size: 13px;&quot;&gt;~user&lt;/font&gt;&lt;/h1&gt;&lt;p style=&quot;font-size: 13px;&quot;&gt;dame cantidad de productos y ventas totales en $ por país.&lt;/p&gt;" style="text;html=1;whiteSpace=wrap;overflow=hidden;rounded=0;" parent="1" vertex="1">
          <mxGeometry x="240" y="-408.5" width="213.79" height="80" as="geometry" />
        </mxCell>
        <mxCell id="nTLEF9N3Q-XhvltVpLBN-8" style="edgeStyle=orthogonalEdgeStyle;rounded=0;orthogonalLoop=1;jettySize=auto;html=1;" parent="1" source="nTLEF9N3Q-XhvltVpLBN-6" target="nTLEF9N3Q-XhvltVpLBN-7" edge="1">
          <mxGeometry relative="1" as="geometry" />
        </mxCell>
        <mxCell id="nTLEF9N3Q-XhvltVpLBN-6" value="AWS End User Messaging&#xa;Social" style="shape=image;verticalLabelPosition=top;labelBackgroundColor=default;verticalAlign=bottom;aspect=fixed;imageAspect=0;image=https://d2q66yyjeovezo.cloudfront.net/icon/389b3317b1ea2cb5476d10e654acabc6-4178d59baa7bb1bcf84371503b88f71b.svg;labelPosition=center;align=center;" parent="1" vertex="1">
          <mxGeometry x="730" y="-400" width="80" height="80" as="geometry" />
        </mxCell>
        <mxCell id="nTLEF9N3Q-XhvltVpLBN-11" style="edgeStyle=orthogonalEdgeStyle;rounded=0;orthogonalLoop=1;jettySize=auto;html=1;" parent="1" source="nTLEF9N3Q-XhvltVpLBN-7" target="nTLEF9N3Q-XhvltVpLBN-9" edge="1">
          <mxGeometry relative="1" as="geometry" />
        </mxCell>
        <mxCell id="nTLEF9N3Q-XhvltVpLBN-16" value="Event" style="edgeLabel;html=1;align=center;verticalAlign=middle;resizable=0;points=[];" parent="nTLEF9N3Q-XhvltVpLBN-11" vertex="1" connectable="0">
          <mxGeometry x="0.234" relative="1" as="geometry">
            <mxPoint x="-6" y="-9" as="offset" />
          </mxGeometry>
        </mxCell>
        <mxCell id="nTLEF9N3Q-XhvltVpLBN-7" value="Amazon SNS&lt;div&gt;Event Destination Topic&lt;/div&gt;" style="sketch=0;points=[[0,0,0],[0.25,0,0],[0.5,0,0],[0.75,0,0],[1,0,0],[0,1,0],[0.25,1,0],[0.5,1,0],[0.75,1,0],[1,1,0],[0,0.25,0],[0,0.5,0],[0,0.75,0],[1,0.25,0],[1,0.5,0],[1,0.75,0]];outlineConnect=0;fontColor=#232F3E;fillColor=#E7157B;strokeColor=#ffffff;dashed=0;verticalLabelPosition=bottom;verticalAlign=top;align=center;html=1;fontSize=12;fontStyle=0;aspect=fixed;shape=mxgraph.aws4.resourceIcon;resIcon=mxgraph.aws4.sns;" parent="1" vertex="1">
          <mxGeometry x="731" y="-260" width="78" height="78" as="geometry" />
        </mxCell>
        <mxCell id="nTLEF9N3Q-XhvltVpLBN-13" style="edgeStyle=orthogonalEdgeStyle;rounded=0;orthogonalLoop=1;jettySize=auto;html=1;" parent="1" source="nTLEF9N3Q-XhvltVpLBN-9" target="nTLEF9N3Q-XhvltVpLBN-12" edge="1">
          <mxGeometry relative="1" as="geometry" />
        </mxCell>
        <mxCell id="nTLEF9N3Q-XhvltVpLBN-17" value="Invoke Agent&amp;nbsp;" style="edgeLabel;html=1;align=center;verticalAlign=middle;resizable=0;points=[];" parent="nTLEF9N3Q-XhvltVpLBN-13" vertex="1" connectable="0">
          <mxGeometry x="0.0357" y="4" relative="1" as="geometry">
            <mxPoint x="4" y="-5" as="offset" />
          </mxGeometry>
        </mxCell>
        <mxCell id="nTLEF9N3Q-XhvltVpLBN-14" style="edgeStyle=orthogonalEdgeStyle;rounded=0;orthogonalLoop=1;jettySize=auto;html=1;entryX=1;entryY=0.5;entryDx=0;entryDy=0;" parent="1" source="nTLEF9N3Q-XhvltVpLBN-9" target="nTLEF9N3Q-XhvltVpLBN-6" edge="1">
          <mxGeometry relative="1" as="geometry">
            <Array as="points">
              <mxPoint x="990" y="-360" />
            </Array>
          </mxGeometry>
        </mxCell>
        <mxCell id="nTLEF9N3Q-XhvltVpLBN-15" value="Send Message&amp;nbsp;" style="edgeLabel;html=1;align=center;verticalAlign=middle;resizable=0;points=[];" parent="nTLEF9N3Q-XhvltVpLBN-14" vertex="1" connectable="0">
          <mxGeometry x="0.3" y="-1" relative="1" as="geometry">
            <mxPoint x="42" y="-9" as="offset" />
          </mxGeometry>
        </mxCell>
        <mxCell id="nTLEF9N3Q-XhvltVpLBN-61" style="edgeStyle=orthogonalEdgeStyle;rounded=0;orthogonalLoop=1;jettySize=auto;html=1;" parent="1" source="nTLEF9N3Q-XhvltVpLBN-9" target="nTLEF9N3Q-XhvltVpLBN-60" edge="1">
          <mxGeometry relative="1" as="geometry" />
        </mxCell>
        <mxCell id="nTLEF9N3Q-XhvltVpLBN-9" value="AWS Lambda&lt;div&gt;Business Logic&lt;/div&gt;" style="sketch=0;points=[[0,0,0],[0.25,0,0],[0.5,0,0],[0.75,0,0],[1,0,0],[0,1,0],[0.25,1,0],[0.5,1,0],[0.75,1,0],[1,1,0],[0,0.25,0],[0,0.5,0],[0,0.75,0],[1,0.25,0],[1,0.5,0],[1,0.75,0]];outlineConnect=0;fontColor=#232F3E;fillColor=#ED7100;strokeColor=#ffffff;dashed=0;verticalLabelPosition=bottom;verticalAlign=top;align=left;html=1;fontSize=12;fontStyle=0;aspect=fixed;shape=mxgraph.aws4.resourceIcon;resIcon=mxgraph.aws4.lambda;labelPosition=right;spacingLeft=-31;" parent="1" vertex="1">
          <mxGeometry x="950" y="-260" width="78" height="78" as="geometry" />
        </mxCell>
        <mxCell id="nTLEF9N3Q-XhvltVpLBN-12" value="&lt;div&gt;&lt;span style=&quot;background-color: initial;&quot;&gt;Amazon Bedrock&lt;/span&gt;&lt;br&gt;&lt;/div&gt;&lt;div&gt;Agent&lt;/div&gt;&lt;div&gt;(Optional Existing)&lt;/div&gt;" style="sketch=0;points=[[0,0,0],[0.25,0,0],[0.5,0,0],[0.75,0,0],[1,0,0],[0,1,0],[0.25,1,0],[0.5,1,0],[0.75,1,0],[1,1,0],[0,0.25,0],[0,0.5,0],[0,0.75,0],[1,0.25,0],[1,0.5,0],[1,0.75,0]];outlineConnect=0;fontColor=#232F3E;fillColor=#01A88D;strokeColor=#ffffff;dashed=0;verticalLabelPosition=bottom;verticalAlign=top;align=center;html=1;fontSize=12;fontStyle=0;aspect=fixed;shape=mxgraph.aws4.resourceIcon;resIcon=mxgraph.aws4.bedrock;" parent="1" vertex="1">
          <mxGeometry x="1140" y="-260" width="78" height="78" as="geometry" />
        </mxCell>
        <mxCell id="nTLEF9N3Q-XhvltVpLBN-19" value="" style="rounded=1;whiteSpace=wrap;html=1;arcSize=4;" parent="1" vertex="1">
          <mxGeometry x="234" y="-310" width="250" height="233.5" as="geometry" />
        </mxCell>
        <mxCell id="nTLEF9N3Q-XhvltVpLBN-21" value="&lt;h1 style=&quot;margin-top: 0px; font-size: 13px;&quot;&gt;AnyCompany&lt;/h1&gt;&lt;p style=&quot;&quot;&gt;&lt;span style=&quot;font-size: 13px;&quot;&gt;Resumen de ventas por país:&lt;/span&gt;&lt;/p&gt;&lt;p style=&quot;&quot;&gt;&lt;span style=&quot;font-size: 13px;&quot;&gt;🌎 Top 3 países por ventas:&lt;/span&gt;&lt;/p&gt;&lt;p style=&quot;&quot;&gt;&lt;span style=&quot;font-size: 13px;&quot;&gt;1.⁠ ⁠EE.UU.: 494 productos, $523.06&lt;/span&gt;&lt;/p&gt;&lt;p style=&quot;&quot;&gt;&lt;span style=&quot;font-size: 13px; background-color: initial;&quot;&gt;2.⁠ ⁠Canadá: 304 productos, $303.96&lt;/span&gt;&lt;/p&gt;&lt;p style=&quot;&quot;&gt;&lt;span style=&quot;font-size: 13px; background-color: initial;&quot;&gt;3.⁠ ⁠Francia: 190 productos, $195.10&lt;/span&gt;&lt;/p&gt;&lt;p style=&quot;&quot;&gt;&lt;span style=&quot;font-size: 13px; background-color: initial;&quot;&gt;Datos completos incluyen 10 países, con ventas que van desde $46.62 (Chile) hasta $523.06 (EE.UU.).&lt;/span&gt;&lt;br&gt;&lt;/p&gt;" style="text;html=1;whiteSpace=wrap;overflow=hidden;rounded=0;" parent="1" vertex="1">
          <mxGeometry x="242.10000000000002" y="-303.25" width="233.79" height="220" as="geometry" />
        </mxCell>
        <mxCell id="nTLEF9N3Q-XhvltVpLBN-24" value="Region" style="points=[[0,0],[0.25,0],[0.5,0],[0.75,0],[1,0],[1,0.25],[1,0.5],[1,0.75],[1,1],[0.75,1],[0.5,1],[0.25,1],[0,1],[0,0.75],[0,0.5],[0,0.25]];outlineConnect=0;gradientColor=none;html=1;whiteSpace=wrap;fontSize=12;fontStyle=0;container=1;pointerEvents=0;collapsible=0;recursiveResize=0;shape=mxgraph.aws4.group;grIcon=mxgraph.aws4.group_region;strokeColor=#00A4A6;fillColor=none;verticalAlign=top;align=left;spacingLeft=30;fontColor=#147EBA;dashed=1;" parent="1" vertex="1">
          <mxGeometry x="610" y="-470" width="640" height="489" as="geometry" />
        </mxCell>
        <mxCell id="nTLEF9N3Q-XhvltVpLBN-33" value="2" style="ellipse;whiteSpace=wrap;html=1;aspect=fixed;rotation=0;gradientColor=#223548;strokeColor=none;gradientDirection=east;fillColor=#5b738b;rounded=0;pointerEvents=0;fontFamily=Helvetica;fontSize=16;fontColor=#FFFFFF;spacingTop=4;spacingBottom=4;spacingLeft=4;spacingRight=4;points=[];fontStyle=1" parent="nTLEF9N3Q-XhvltVpLBN-24" vertex="1">
          <mxGeometry x="70" y="70" width="30" height="30" as="geometry" />
        </mxCell>
        <mxCell id="nTLEF9N3Q-XhvltVpLBN-37" value="3" style="ellipse;whiteSpace=wrap;html=1;aspect=fixed;rotation=0;gradientColor=#223548;strokeColor=none;gradientDirection=east;fillColor=#5b738b;rounded=0;pointerEvents=0;fontFamily=Helvetica;fontSize=16;fontColor=#FFFFFF;spacingTop=4;spacingBottom=4;spacingLeft=4;spacingRight=4;points=[];fontStyle=1" parent="nTLEF9N3Q-XhvltVpLBN-24" vertex="1">
          <mxGeometry x="199" y="180" width="30" height="30" as="geometry" />
        </mxCell>
        <mxCell id="nTLEF9N3Q-XhvltVpLBN-40" value="4" style="ellipse;whiteSpace=wrap;html=1;aspect=fixed;rotation=0;gradientColor=#223548;strokeColor=none;gradientDirection=east;fillColor=#5b738b;rounded=0;pointerEvents=0;fontFamily=Helvetica;fontSize=16;fontColor=#FFFFFF;spacingTop=4;spacingBottom=4;spacingLeft=4;spacingRight=4;points=[];fontStyle=1" parent="nTLEF9N3Q-XhvltVpLBN-24" vertex="1">
          <mxGeometry x="393" y="175" width="30" height="30" as="geometry" />
        </mxCell>
        <mxCell id="nTLEF9N3Q-XhvltVpLBN-45" value="5" style="ellipse;whiteSpace=wrap;html=1;aspect=fixed;rotation=0;gradientColor=#223548;strokeColor=none;gradientDirection=east;fillColor=#5b738b;rounded=0;pointerEvents=0;fontFamily=Helvetica;fontSize=16;fontColor=#FFFFFF;spacingTop=4;spacingBottom=4;spacingLeft=4;spacingRight=4;points=[];fontStyle=1" parent="nTLEF9N3Q-XhvltVpLBN-24" vertex="1">
          <mxGeometry x="250" y="78.25" width="30" height="30" as="geometry" />
        </mxCell>
        <mxCell id="nTLEF9N3Q-XhvltVpLBN-20" value="Meta&lt;div&gt;Whatsapp Business API&lt;/div&gt;" style="dashed=0;outlineConnect=0;html=1;align=center;labelPosition=center;verticalLabelPosition=bottom;verticalAlign=top;shape=mxgraph.weblogos.whatsapp;fillColor=#00E676;strokeColor=#dddddd" parent="nTLEF9N3Q-XhvltVpLBN-24" vertex="1">
          <mxGeometry x="-50" y="65.75" width="88.04" height="88.5" as="geometry" />
        </mxCell>
        <mxCell id="nTLEF9N3Q-XhvltVpLBN-59" value="" style="shape=image;verticalLabelPosition=bottom;labelBackgroundColor=default;verticalAlign=top;aspect=fixed;imageAspect=0;image=data:image/png,iVBORw0KGgoAAAANSUhEUgAAAPAAAADsCAYAAABKQStyAAAKqGlDQ1BJQ0MgUHJvZmlsZQAASImVlwdUU+kSgP970xstgICU0Jv0FkBK6KH3JiohCSGUGAJBil3EFVwLKiKgruhSFVwLIGvFgoVFsYB9gywC6ioWsKDyLnAIu/vOe++8OWcyX+bOP//8c+5/zlwAKCosoTAdlgMgQ5AtCvf1oMXGxdNww4AElAAZ6ABjFjtLyAgNDQSIzNq/y3gvgKbsHbOpXP/+/L+KPIebxQYACkU4iZPFzkD4BKLv2EJRNgCoOsSvuzxbOMVdCCuKkAIRlkwxb4Y/THHSNKPx0zGR4Z4IqwOAJ7NYIh4AZCPET8th85A8ZD+ELQUcvgDhXIRdMzKWcRBuQ9gIiREiPJWfnvSXPLy/5UyS5mSxeFKeOcu04L34WcJ0Vt7/2Y7/LRnp4tk9DBElp4j8whErg/Tsj7RlAVIWJAWHzDKfMx0/zSliv6hZZmd5xs9yVnoEc5Y5LK8AaZ704MBZTub7SGP42czIWeZmeUfMsmhZuHTfZJEnY5ZZorkaxGlRUn8KlynNn58SGTPLOfzoYGltaREBczGeUr9IHC49C1fg6zG3r4+0DxlZfzk7nyldm50S6SftA2uufq6AMZczK1ZaG4fr5T0XEyWNF2Z7SPcSpodK47npvlJ/Vk6EdG028nLOrQ2V9jCV5R86yyAU2AJLsByYAWvEgmxubvbUITyXCfNEfF5KNo2B3DQujSlgmy+gWVta2wIwdW9nXov396fvI6SMn/NtkACwUGVycnJ8zuf/BoBj4wDIVcz5DHDI/7cAdFSxxaKcGR966gcDiEAWKAJVoAl0gdF0ZfbAGbgDb+APQkAkiANLABukgAwgQipfAdaCIlACtoFdoALsBwdBHTgCjoFWcBpcAFfADXAL3AOPgAQMgpdgFIyDCQiCcBAFokKqkBakD5lC1hAdcoW8oUAoHIqDEiEeJIDE0ApoPVQClUIV0AGoHvoFOgVdgK5BPdADqB8agd5BX2AUTIYVYQ3YALaA6TADDoAj4cUwD86E8+FCeAtcDlfDh+EW+AJ8A74HS+CX8BgKoEgoZZQ2ygxFR3miQlDxqGSUCLUKVYwqQ1WjmlDtqE7UHZQE9Qr1GY1FU9E0tBnaGe2HjkKz0ZnoVejN6Ap0HboFfQl9B92PHkV/x1Aw6hhTjBOGiYnF8DDLMUWYMkwN5iTmMuYeZhAzjsVilbGGWAesHzYOm4otwG7G7sU2Y89je7AD2DEcDqeKM8W54EJwLFw2rgi3B3cYdw53GzeI+4Qn4bXw1ngffDxegF+HL8M34M/ib+OH8BMEOYI+wYkQQuAQ8ghbCYcI7YSbhEHCBFGeaEh0IUYSU4lrieXEJuJl4mPiexKJpENyJIWR+KQ1pHLSUdJVUj/pM1mBbEL2JCeQxeQt5FryefID8nsKhWJAcafEU7IpWyj1lIuUp5RPMlQZcxmmDEdmtUylTIvMbZnXsgRZfVmG7BLZfNky2eOyN2VfyRHkDOQ85Vhyq+Qq5U7J9cmNyVPlreRD5DPkN8s3yF+TH1bAKRgoeCtwFAoVDipcVBigoqi6VE8qm7qeeoh6mTqoiFU0VGQqpiqWKB5R7FYcVVJQslWKVspVqlQ6oyRRRikbKDOV05W3Kh9T7lX+Mk9jHmMed96meU3zbs/7qDJfxV2Fq1Ks0qxyT+WLKk3VWzVNdbtqq+oTNbSaiVqY2nK1fWqX1V7NV5zvPJ89v3j+sfkP1WF1E/Vw9QL1g+pd6mMamhq+GkKNPRoXNV5pKmu6a6Zq7tQ8qzmiRdVy1eJr7dQ6p/WCpkRj0NJp5bRLtFFtdW0/bbH2Ae1u7QkdQ50onXU6zTpPdIm6dN1k3Z26Hbqjelp6QXor9Br1HuoT9On6Kfq79Tv1PxoYGsQYbDRoNRg2VDFkGuYbNho+NqIYuRllGlUb3TXGGtON04z3Gt8ygU3sTFJMKk1umsKm9qZ8072mPQswCxwXCBZUL+gzI5sxzHLMGs36zZXNA83Xmbeav7bQs4i32G7RafHd0s4y3fKQ5SMrBSt/q3VW7VbvrE2s2daV1ndtKDY+Nqtt2mze2pracm332d63o9oF2W2067D7Zu9gL7Jvsh9x0HNIdKhy6KMr0kPpm+lXHTGOHo6rHU87fnayd8p2Oub0xtnMOc25wXl4oeFC7sJDCwdcdFxYLgdcJK4010TXn1wlbtpuLLdqt2fuuu4c9xr3IYYxI5VxmPHaw9JD5HHS46Onk+dKz/NeKC9fr2Kvbm8F7yjvCu+nPjo+PJ9Gn1FfO98C3/N+GL8Av+1+fUwNJptZzxz1d/Bf6X8pgBwQEVAR8CzQJFAU2B4EB/kH7Qh6HKwfLAhuDQEhzJAdIU9CDUMzQ38Nw4aFhlWGPQ+3Cl8R3hlBjVga0RAxHukRuTXyUZRRlDiqI1o2OiG6PvpjjFdMaYwk1iJ2ZeyNOLU4flxbPC4+Or4mfmyR96JdiwYT7BKKEnoXGy7OXXxtidqS9CVnlsouZS09nohJjElsSPzKCmFVs8aSmElVSaNsT/Zu9kuOO2cnZ4Trwi3lDiW7JJcmD/NceDt4IyluKWUpr/ie/Ar+21S/1P2pH9NC0mrTJtNj0psz8BmJGacECoI0waVlmstyl/UITYVFQkmmU+auzFFRgKgmC8panNWWrYgMSF1iI/EGcX+Oa05lzqfl0cuP58rnCnK78kzyNuUN5fvk/1yALmAXdKzQXrF2Rf9KxsoDq6BVSas6VuuuLlw9uMZ3Td1a4tq0tb+ts1xXuu7D+pj17YUahWsKBzb4bmgskikSFfVtdN64/wf0D/wfujfZbNqz6Xsxp/h6iWVJWcnXzezN13+0+rH8x8ktyVu6t9pv3bcNu02wrXe72/a6UvnS/NKBHUE7WnbSdhbv/LBr6a5rZbZl+3cTd4t3S8oDy9v26O3ZtudrRUrFvUqPyuYq9apNVR/3cvbe3ue+r2m/xv6S/V9+4v90/4DvgZZqg+qyg9iDOQefH4o+1Pkz/ef6GrWakppvtYJaSV143aV6h/r6BvWGrY1wo7hx5HDC4VtHvI60NZk1HWhWbi45Co6Kj774JfGX3mMBxzqO0483ndA/UXWSerK4BWrJaxltTWmVtMW19ZzyP9XR7tx+8lfzX2tPa5+uPKN0ZutZ4tnCs5Pn8s+NnReef3WBd2GgY2nHo4uxF+9eCrvUfTng8tUrPlcudjI6z111uXr6mtO1U9fp11tv2N9o6bLrOvmb3W8nu+27W2463Gy75XirvWdhz9nbbrcv3PG6c+Uu8+6Ne8H3enqjeu/3JfRJ7nPuDz9If/D2Yc7DiUdrHmMeFz+Re1L2VP1p9e/GvzdL7CVn+r36u55FPHs0wB54+UfWH18HC59TnpcNaQ3VD1sPnx7xGbn1YtGLwZfClxOviv6U/7PqtdHrE2/c33SNxo4OvhW9nXy3+b3q+9oPth86xkLHno5njE98LP6k+qnuM/1z55eYL0MTy7/ivpZ/M/7W/j3g++PJjMlJIUvEmh4FUIjCyckAvKsFgBIHAPUWAMRFM3P1tEAz3wLTBP4Tz8ze02IPwFF3AEIQnRrfGtcAoH8eAFlEQxFfpDuAbWykOjsDT8/rU2LZhHw2XJii/jvRBeAfMjPL/6Xuf1ogzfo3+y8hVwwJRM3dvAAAAIplWElmTU0AKgAAAAgABAEaAAUAAAABAAAAPgEbAAUAAAABAAAARgEoAAMAAAABAAIAAIdpAAQAAAABAAAATgAAAAAAAACQAAAAAQAAAJAAAAABAAOShgAHAAAAEgAAAHigAgAEAAAAAQAAAPCgAwAEAAAAAQAAAOwAAAAAQVNDSUkAAABTY3JlZW5zaG909+fu5AAAAAlwSFlzAAAWJQAAFiUBSVIk8AAAAdZpVFh0WE1MOmNvbS5hZG9iZS54bXAAAAAAADx4OnhtcG1ldGEgeG1sbnM6eD0iYWRvYmU6bnM6bWV0YS8iIHg6eG1wdGs9IlhNUCBDb3JlIDYuMC4wIj4KICAgPHJkZjpSREYgeG1sbnM6cmRmPSJodHRwOi8vd3d3LnczLm9yZy8xOTk5LzAyLzIyLXJkZi1zeW50YXgtbnMjIj4KICAgICAgPHJkZjpEZXNjcmlwdGlvbiByZGY6YWJvdXQ9IiIKICAgICAgICAgICAgeG1sbnM6ZXhpZj0iaHR0cDovL25zLmFkb2JlLmNvbS9leGlmLzEuMC8iPgogICAgICAgICA8ZXhpZjpQaXhlbFlEaW1lbnNpb24+MjM2PC9leGlmOlBpeGVsWURpbWVuc2lvbj4KICAgICAgICAgPGV4aWY6UGl4ZWxYRGltZW5zaW9uPjI0MDwvZXhpZjpQaXhlbFhEaW1lbnNpb24+CiAgICAgICAgIDxleGlmOlVzZXJDb21tZW50PlNjcmVlbnNob3Q8L2V4aWY6VXNlckNvbW1lbnQ+CiAgICAgIDwvcmRmOkRlc2NyaXB0aW9uPgogICA8L3JkZjpSREY+CjwveDp4bXBtZXRhPgpmfgSmAAAAHGlET1QAAAACAAAAAAAAAHYAAAAoAAAAdgAAAHYAAB042si13AAAHQRJREFUeAHsXYdXG3fWfepdomMwYMAGlxTH3v7tbnaTs2fP9z/vOd/Zze6eFMeJ48QVTDO4YDCg3vnufSM5grhgjCwGvbGFCkIzer+58/p9nlwutyu2mQRMAq6UgMcA7Mp1s4M2CagEDMB2IpgEXCyBPQCuF4pS2dqWaqEgUodlvWvWtYvX1g79JEjA4xFvJCLBvl7xRcO/+EZ7AFx69ER2vr0ppbU12a1URGr1X/yBvWASMAm8JwkAvB6vV4Jjo5L87VWJjI38Ysd7AJxbWJKtf3whhbl52S3kpV6p/uIP7AWTgEng/UjA4/OKJxCUyMw56fvfzyU2M/2LHb8cwHfvSnV7W3ZLMKVtMwmYBDoiAU8gJL54XCIXLrwdgPO370h1c0N2i/mOHLjt1CRgEhDxhMLiT/VI5OJFA7CdECYBt0nAAOy2FbPjNQm0SMAA3CIMe2gScJsEDMBuWzE7XpNAiwQMwC3CsIcmAbdJwADsthWz4zUJtEjAANwiDHtoEnCbBAzAblsxO16TQIsEDMAtwrCHJgG3ScAA7LYVs+M1CbRIwADcIgx7aBJwmwQMwG5bMTtek0CLBAzALcKwhyYBt0nAAOy2FbPjNQm0SMAA3CIMe2gScJsEDMBuWzE7XpNAiwQMwC3CsIcmAbdJwADsthWz4zUJtEjAANwiDHtoEnCbBAzAblsxO16TQIsEDMAtwrCHJgG3ScAA7LYVs+M1CbRIwADcIgx7aBJwmwQMwG5bMTtek0CLBAzALcKwhyYBt0nAAOy2FbPjNQm0SMAA3CIMe2gScJsEDMBuWzE7XpNAiwQMwC3CsIcmAbdJwADsthWz4zUJtEjAANwiDHtoEnCbBE4egD0erIFHOLlcvJhe7vPh3ieexut44LY16u7j3d0V2a3jf12kVnPu9TleF/6O9927nSwAE5weB7SeQFC8kYj4wmEMQQ6JNxAAdh1Qd+9yu/CbA7T1WlV2S2WpFQtSL5Vkt4xbFa/hdwR3N28nA8AEbkPbegIAazgi/kRcJ5f7knHxRaPiCwZFVBsDxLa5QAINzVqrS71clnqhKLVsVqqZrNQyaanl81IHoHerFQAZIO5SILsfwACvB+AVf6AB3IQEBgYkODQoweEhCfT2iD9KTRxSkFND2+YGCTgAJjgJ0lquIJV0Riqbz6X8dF3KG5tS3d7C61lHI6s27j5z2t0AVvDCv4V57I3FJdDXp6ANj45KaGRYgoN9EkglxQcT2uP3O1qa2lq37ltsN8D252N01mmX/m4VZjRM52ouL5Xn21J68kyKj59IGbfKxjOp7GzLbrEIJUyTurvW1b0AJnj5j+CNxqFxhyRydloiU2ckOj4qwYE+8UXC4g0GcE40TgYGPbjpXXcttPPF3fQTa6bLhjXmPYBJn7eWLwKwaSk+WZfC4kMpLC9LcWVFtfFupez4xW76mu94rC4GMINVXgVvoH9AImcmJP7hJYlNT0hoeFD88RhOAKw8fSgsbL3sBD3qjGZ22VX6Hc+Rjvy5g12A1+/Ti7AXLhIfS31XfeLSxpYUHq5K/sGS5O7NSenRmlTTO2pOd+SAO7RT1wKY6SFGmgP9/RKenpb4zIwkPpiV8OgpNZmFaSSYXtUSrthpBD7yiGAWS1LHawpgA3GHTrkD7Bbo1bQfLsDeUBAXYwQkYwhERhCgBJC5VWEyV7a2pbCyKtk79yU/vyjF1YcIcO101QXavQBGVNkXS0gI/m78A2jeCzMSPzspQQStmDOsFfJSfr6FYMeWlDa3cHXOOikIpB/UHDvAeWRv6YwEqH3VbMYPpgCZUQj0pCQEt4j3/kQMSQef1BCdLq0/k+z9BYD4nuRu3UaQ61kjvdQdLpJrAeyNxCQAvzc6NSmJTz6SGMAbRuTZi2hzHTlDBjkyt3FlXlyS0uN1qaXTWFiY0TShbTv2EnBMaBymzw8tHEZAckCiM2clOjkhkbERBbIX2YdKNifFtceSvnVPtr/+RsqrK7JbYWoJllYXbK4FsC+RkvAZBKzOz0jq4w/hA4/BzILfK3WYVjuSg2+0fe07KTxYwFV5Q+rIG+6q2dwdV+YTc+42CnOYYQhPn5XY7DmJnz8nkdMAMTRzHUAtP9uUNMzorf98KYWFBaw1UksAcTdsrgWwv7dforMwmy9dlORHlyQ8MqRlk1Uk+wurjyV7d07S129IaW0VGpkJf16RAV7zfd11XtOWBohZVRfoQ7xjclKStLjOTUkEa+6Fhi7DF87OPZCtL69JYX4eqabnWuThri96uKN1L4D7hyTx4QcSB3iTH1zQtBEux1LC1Tg7tyjZW3cl++OPmid0zGYD7+FOkWPwV/SFaUoDxOHT45L41SeSuHQe7tOE+FEqW0aBR25hSXa++U4j0uWnT1QLH4Mjb/shuBbAgcFh+L6XJUEAYzGDfT1SQ7K/sAbf9yeA9/ZdRCbnpbq16QjRNG/bT6a27oANKSjGCY2MSuLqFaz7RUnAJ2a6kOWVucVl2YHFpSklWF21bKath3NcPty1AA4ODUv8yhVJXv4QV+NZCaZSUkXkubC8Jjs3fpIcopKFpUUEr7aPi6ztON5FAtTCMKUDg0MSv/wxUoYXJD4LACcTUkUgi+mkNNadF+3S2poBuEXWnlwu9yLyQ1Nl6x9fSP72HakiOLRbzLe89f09VABfvSqpBoBZMslSu/zSQwD4RwD4vhSXl5y84Ps7LNtTOyUAEPv7BpAyPC+xmXOOCY1AFnP8xcdP1eoqLC2jVpomdK6dR3JsPtvFGviUxGFKpT6BBr54HjXPzpU4t7QqO9/flPxdAHhl2QB8bE61ozkQzT6Mo9pu/DQClyjaQblsrVjWwFVheUUqT55KZduCWK3SPqYa2ADcukjd8pg5YX+qR3xwmXyJBCqz/Jrfr6NGuoqmBmYhqH3ZwdQNm2ngbljlE/QdGY32oArPyw4zlNKylZRZBm3wZzOD3liwY4UczWU3DdyUhN13XgIMZiEiLV4nqKU1l8gw8J+wyg7NDmxB7JZ8v2ng5imJEwMVA04RPU4OPTEarzXfYvfdJAHWDeD7Mv3IC0TrReEYpSQNwDwnCVSW7MEcc7qc0PFCU40UPHxdsc0ftp14CTTAqWW3ZANh/bzS9qAJhtQ9NNeJ7GMCYgMwAYrWQ0+DkscXQdsagyMNGh4SBqjJpig+8aevfUHVtoAoSfPQ7VQjFxdoe2q5nAbH6iDUI5D3aOQOSq27AQxQqsYleEnJ09ug5DkNRo+hAXS8JJVPS0FMbWzbiZeABsTI/FEAhQ8KRCpoRS2hs630BPQ96+tKGkB6HyHAj4Em7l4Aq+ZFeR7TEskkiPAGJTyG3OLYKDpdTkkIAPYjt+xH/a2jhUEQYFr4ZAOYZjFu7HBSDq5MDj3l4OBCkQhbFgsrD6UEQr3q1pbWWmvbYoej3V0LYNbVeoIhp8NlAj2mU5PocJkEHQ+YLFFf6yX7A81naF5lvTTwnmzwNr/dCxDD34WWJWkAzWiyYOZX1sDDtYwW1UUQCTxFuSZ6zPH7Tm7dCWCA0YsuFn+qV7VuFKV58XMgxJscB6NHSgNXSCQipwgziVdj3JiewOW5k2tl+34fEqBbxWAmubjgWjmBTLi9KNMlkV5uccUp2QSQywBxnbS2HWTD7D4ANxbIl+xxCAHQ0cJmiAjMZ9K1sECA4CV/VnkbBOJYOBKIKyker84G4vcBow7tA+AlcMFkSnKIAC7m6kKx2ov8amiW0Zrrew8kf38ehHoPlCyCWpjR6k5sXQdgNYlJhoduptjFC1pHHZuZhs/br83hdZhNbE+j71N8Ss7hNKYCgBCADA8sEjAAd+I8bf8+d1kDgN0ArD4Q6fnQJBEa7JdgP3i4CGRYbNzKOB/yS9DC9x+Ag+sOfGN0PoFIr1OmdPcBWMnwkhIaG5PElY+1JS02cVqvuAQvCfAKy+AbfrgGlsPHqK/F4gC8DsdSw4Q2S1pP5hP3g+UACG5KACDGOB7S+ERwbpDCJ3RqSEHMMS/FZxuSX1iW9A8/gcJn0TGlO9T91HUA9iLPSx7p8NSUpK5+ooGrMLQva2wrpONBoCLz4x0EKxCogM/DeTwvfBw1oU/caWtfqFUCdLFQF0BXyhtPKt948urH4BtHgBOkEZyvVUVO2DlPbiuBQGFpqWN9510HYF8cVLSnx8BweA7cSh9K9My4jl+hhi0h0pidW5A0qFmKWJQqWB0052fAbT3FT/5jamJW4gHEoVNgAPkEltoFEOmhhTGAYXk8V+hekfWUzC859sY/3+iIXLoPwGhFi0xOoyl8VmlZIsj7cvgZUwXFtUeSxqLsfH1NSqsP1a/pVHCiI2eD7fRnCTQq9AL9gxK7dAnkiRckdv6shOEXMwVJzvHsvXlYa7clc+MHqTx7+vPfvsdHXQdgf0+fsllqAOuD82gKH9bRo5UdEKOBzSELPq309etSRuXNC9P5PS6I7eqYSEAjWmAA6emVyPQULvgXJPnxRRT54IIPEoEyeMZzIJRP37wl6W+/VRaQThx59wEYlCya9wUdbeLSjJLBMzJdJpc0qEkzYLPMfH+jY1fUTpwEts9XS6DJABKFxZa6Ajpb1AowxUTigMz8ArTvLVhsIJR/+vjVH9LG33QlgGMAL/mkExdnkCoY0N7SCkyiDEd0/HRHsjdvgo52vY1it492iwR8CGQxZkKXK3X1Mni4EDNBiol10lkAOE0Af0UAP+rIV+o+AKtPAwBfbAK4X2ucyyADz9xb0Nxe5uaPIOwzAHfkjDxmO30R9MQQgRT4qDn9MoBuNUaiNeAJJkzVwE8MwG+1dMGhw3Fi+Q3AbyXnbn+zAbhNZ4ABuE2C1eDNaz67y1JqBuDXnAvv8isD8LtIb9/fviAb4QOWFDZeaL7eLEBT8LbUg3dBRZoBeN+5clRPDcBHJEkFKX6wA0cphRpUQiSOawKZwEXHDQsYXoxo1TGteP2Eg9gAfETn2f6PMQDvl8ghnwOk2u+MyiMtHwxF0AsddqhbkV7jxnZKFuvXUexSL+JWLqK/Dq2WBPEJN6kNwIc8r970ZwbgN0noFb9vVBg5/Mqo92XNbzgivlgUPGDgAyMXGG5ekB2w7lc3AJglpRxhUsOc5XrznmAuFR0uZiV+I6BxO0GbAbhNi2kAPpxglYkEWtaPmvBAP9rlkAcPnhpG21yv+OIAMLUvSgW9BC87c7ixPxr9sOzWohaugmqGefPy+jMM195Aym0TeVG0XaJvmmRwJ2kzALdpNQ3AbyFYNZNBDQSKIJL3+Xt7MU95AKM6h3E7peWkIQCYGpjN7N4mLzYCWs5GXxdcUeiHrpdAMQMtXN4EVxS6tYqYRVTmDUDWwdr5DMxttF92kKXiLSTzxrcagN8oosO9wQB8QLlpIIoUQphwD+AGTp1CM8eEhEdHnGb1vhQ6bEDeR7MZFDJqNjcDW3t24QSsGMiqoz+a5nQFxAcVlKCysL/46LEUSTND9kYUxexSGzPC5XIf2QC85yQ4uicG4IPJ0jGZw0qZGzp9Wvtbo9NntEGdwHVMZvq6QC15wMh5DDNY6VWVB4yWtBPo0s9Cr6xjWgOeMKtroB4ikKmN2eReXMYNZAjVLUwIpH9MqhkXg9gAfLDz7K3fZQA+gMigfUlgEMRQ7NA46nnRAx09M9agzE3CXA4qcHdr0KjgQSZ5OWt8OWeZpjIByk15osJBaOkYfGf4yQh4+UAxQ9ZOTjCow2SuopurBJ84D/Dm5+YB4lU0hKyD9A2TAl2siQ3Aegoc/Q8D8Gtk2pIaCvT1S+TsWTCPTEv07JSESQ2TiGmgiuZwDZHkSjoDUziNG8Zzbu8oM8kuU0YNAHtB9OZBcCvAwBfI7pUjCjxRLzS4l6RvoGAlUwU18YMl3BakMA/SNzS6q0bHvtyoiQ3ArznP3uVXBuBXSI/g5T+O4ATgwmPjkgT3V/QcwDs8qJ00LNogtxOBW954rnSp1J7VZ5t4DdFk+Lf8PQHOje2W1NYcNxMACb5/oB9aHET4I0OOH52CNgcRHOcGMULNz8rOLUr6+x+giR/i8xDYokZnisll5rQB+BXn2bu+bAB+hQQbeV62wQWHR0AdNC3K6QTqIGpe+q8sxmD/c/HREyngVlp9pFHkGgdkw3zWGbtMBzVzuvxMpJY4j9fPXHFPD8xygBjN7ZxioQGx3h7l2sYfqRmeX3ooO9d/kDy0cPnpE4cEnRcEreB6xbEfw5cNwG1aFAPwSwTLiHOjHDJI2lz2PV8Eaf3MlPY9c5p9FQUZ1Lpk3cyBGrWgvuozUKOC/wuDuzSPu79MshmV5mfjM1jkwRM7gBxyZAK+9azDFxWEZvaHQ1q5VVrfUOrV7N37krtzV/1hvTC4zJQ2AL/kPDuKlwzA+6RI8NJ0pr+KlFF44oz0/O63DusI/V5oTpZElkGbmwd1UI5+Kjidyk9AnZvBiBAA+0AmLk10amRUcPnRFxsE6Vt0Fj42/Ovo1Bk1qb0BMDciV1x89FSyd+Zk+5vrUlxZRhEIAlqYdkEt7RZT2gC87zw7qqcG4H2SbAGWL5FU3q++z/4sCXAaBwBeAqaCCDPn+6R/uAXTFuB99Ein7b0Y0nVQ/5T7gl/Mkaz+ZAogHpHIzFlJNVk+MVuKG0GcgZZ//s//YJLBnMOxzdSSi3xhA/C+8+yonhqA90lSfV+fmrbBoSGJgkVx4C9/lBi0IsFWA/F4gRrx/qKyKJI2t7KNKXsouDiUNiSI+Y8zpgDi8OQkfO1PlCg/MjoM3ihq/DpmCS3L5r/+C+rVu/CFybMNba9mtDtqpg3A+86zo3pqAN4rSdWIyMsGevslDBZFcn71/PqyRFBxxf5eThNIg3Ezdwc+6dwcwITBXGrSYmTMYTeCmD5xGGT5w2BIAe1M7NJ5SZLtE+NZeWFgkGzr2xvgT8YYkkVcNJ5vNuh6nQj3YXf9vv7OANwmSRuA9wpWo8TBMCLPANIH4PsCiBjACg/0AUe7ajo//+pbJSEvIXBVhfZ1Kq7eEUjoG+a+Sb/KcTXcd9/vfy0xFIywn5hk+Znb9/RGEvQKItJuanowAO89z47smQF4ryjpj7LeOcS8L9gT49CEsSkQsKFckj5uFkGrzX/+VycJkHGzDpP6SPp5AVK0LmnFF4tGGPke/NunOq6VBSDKn4wSSwazMjduYt7UKvaNcTU4JjdsBuA2rZIBeK9gtdMIpY7hiUlEn3/tjEwdPaW5WWq8DEZibvzfF4g834P23dY65UP5vnt36zyjKa2ppaROfBz8++dK2cviDk52LGC6fQYA3rmGkTWola7l2LHU2cHYL/saL3vNAPwyqRzBawbgvUIkgH1oFQxPTknvH3/vcF6jWsrRghkdA/IcwSTWKdfSBHBp7we84zNWfvliCRSOzMjA3/6q+/fH49q5VETwKnt3XkfW5OEHd3Ic59t+TQPw20rsgO83AO8VlANglE4igNX35/+RBIjIg/B/GcAqo8Y5AwBt/edLrYxyAHTEANYLSELrrvs//xQAxv5RYllHX3BpHX4wcs47X36DjqXFBoCPdv97pXF0zwzARyfLPZ9kAN4jDm3WpwYMT087AMbUCQ6nVgBjWHnm7pwDYDQZtAvA3mgcNddnpe+zTyV5iQBOAcB1lGk6AN4GgAsLC07uGVVfbtgMwG1aJQPwXsG+0MBTMKH/9AdoYIyN4dxjDwJJ6DDK3AOA//0lOoTm2wIg1kkrgFFWOQANHKcGRgCN1V8sq6QFsPPVNdPAe5ftnZ/ZaBUU5TPd4fbRKk4QK46GfQSx/sASylltHWTPLiuwMvfnWyqithFEggY8aOXVm04zBrEAYGqr6OysDPwdPjBMeLJ8sK+YtDuZO/MoqfzWCWJldiyI9SaZHvD3BuCTAmCmkdC8Hx6fkNRvfoU00qxEJ04rw2QdrBkc3Lb5L5Q03r2Hvl+wZRTyDoDfFcQALy+AXhLloUuJYzgH/vYXrchiFLqG7qb8yqqmkXau35DSwxUnCm1ppANC9PVvMwCfGABzojzywKOnJXH5I6eQAz3AgZ4UCjZqTknjv79qlDSyvQ+pnKMoadxXwsk8cD9LOEHb4wX9Ds13DgHLYnB65uZPUnq0phePXdDQumEzH7hNq2Q+8F7BOjzPQbT4oY3w/CwAjIHUH12EHzygljJ7f7dZ0ojWPuZilXiO7YMKYnQHHWaj6cymhkBIAn19Ej4zoVMfe357RaKnR/QTi2juT3OKPaqx8vfuS2UdJZzcr0voZw3AhzkxDvA3BuC9QvI0SxrBPBmCGU1N2Pe7qxIZG1VSOrJHZh8sqilLEKsmxJBqFlQcirOKpjObGRr559DoqNZfxxD9ToBEIIjjYASafcdb33ynY1vJzqElnDCflXZ271c4ls8MwG1aFgPwPsE2TFnyPgf6ByR+4bz0ffp79OlOKh0OCzdKSOfk5pckDVO2gC6h6uYG/NGsM/eIvvBB/eGG38uLhhfVX8q7NXkG1D2YYA+znVqfEx8YwMotLMnzL75CIQd8741nILnDReMoTPd9X79dTw3AbZKsAXifYBsaUbmrWBF1Fvngz/6k6SQ23nPSQhVUOsW1J5K5ha4kMkcurzj0r4xIw08+kCam2Yx/QuIARJ4DvX3axBBF+ij58SWJQuN70WIoACk5t7Io4GA7IdNX9LudCrC3uFjs+5rv+6kBuE0SNwC/RLAEl/qkQfBVjUtKa6LRkQR/lDlZTZchqJRbXHGYIwHi0mMwcuwgrVMEFxZApw0OL/no5kvOBEOAFxFvP4gDONnBYb2cROBqUoJ9vfpWgpfmcwbti+lrYORYfeiwfriMJ9oA3Fz5I743AL9CoMqJ5dO+4Ai0MNM6ycuXQD43ojzOdVDaVME8WXj8FGWViyisWPo5qPWCiJ2fTS3Z2AfdXWpd/scUQ1L2MGgVGh+XyNQkOo8m0Xd8Svxkp0RNtCBAlcekhp3vflI+rMLioqauHL6td2xfbBzS+7ozALdJ0gbgVwiWWhj+MOccNTmhU7+54mhHcDk36V/L1JCrj6WwsobyxiUMKlsHNxZMXE4fZISYfmqTQRIXBY5cISkeP5eaN3hqEEUjZyQyjmkPMJtZ9yxIGyld7XYanFuLsv31dSmgdFPzzg0Nf2A/+xVf732/bABuk8QNwK8RrJrSABsCScERRIeRF46DGysKalmauN4AiNhBd0POqupOGiyVW2i8f67TBpleqgLcnELY7Nn1cOAZqXMAUs5XCoJfmsPQ2CzhJ080QE0yPWrYkpLmrSBoNSfZH28paZ6OWNG0kXt836Z0DcBNSRzxvQH4DQJtBJt8YMoIT03pZIYY2CPJ4czpCn4GmqBZnflGmM5AICNKzc4lgpoVVKqJsRsC3keNjqIQTmUgfWwghblKMKUJXPJHc8JDGZq3iN5ftg6SD7q4gqorcE07frX7wEsJG4DfcJ4d9tcG4ANIDiAmh7MfXUHKHIlWwyhYOiLQxKFBcDhHImoaE8T1CseGYoA3gMj0DycQCrS0bjCNWVNNje4D77MOAEcEWsELU7uKpn1S5xRA5p5HeioP85l0tco1rX3H7gQvv7sB2DkFjvynAfhgIm0WePiSPSizHEWt9JhEUObIoBNN4EAirukgD0BKn1enEpL2FZMJyaXFjS2JwgmFzDXTH8ZzfR9AzsmEShTPKQ/wpQuoey6BrlZbFmk2u4hC9mUSNQC/TCpH8JoB+IBCpClN4FF7oluI0eMgmDoI5giI58IAcoi+LAoyxI/3EZxa1LHv8xmBVuAC1NDYVQwyK8FfJnl7YfmhlNYwngVlkxXMCq7lMF8JWtzt4KUEDMD7zoOjemoAPqAkATpAT0sevTCZGUFmdDoE4EaRt2UUOTQyjDxxEu9Bioia+DUbc8UcJ0qfmTOBmeslTU4JGriyuelEsjncm80Kb1Pd9Zp9dvJXJwHA/w8AAP//oe3z7QAAIK5JREFU7Z2Jcxv3dccfSQAEAfAQJeo+KeqyHF+ZdjJpm06baSaZdDr9V9vONJm4cSdO0tjOYUeHZckSRd0SKYoXboBgP9+3gKzDpgSJIBbCb2coUMRisft++913f99AoVDYsOZWmJ2zpQ8/tuKXl6y++NA2ysXWW9v6mtq913IfvG/j771to2dOWXJ81Or5ghXmbtvK5+es+NUVK9+8YetrK0+dV2LnlGXfOmO5M2f43AkbntppNjBg1UePbO3yrBUuXrK1c+e5tvmnPtez/xkYtIHEkA0Oj9hQLmfJiUlL7p6y9P69lj64z9L79tjw7l2W4L3BZMJscHDTS91Yb1ijVrP6Wt4qCw+tfO+BVW7f4/W+1fh/bXkJmeetUS3ZRn3dbKPBz+PbZ9Njx/HNodyoDR84aJmTJ2z8++9ZdvqwJUe51woFy389a6tfXLCVTz+z6v27XTn9geG0JcYnbIT7efKn/2zZE9PPncdAAPBzMonvHwZ0agM2ICAOAdzUsA2mMzbETZec3GHJXTsttXu3P7j08NLfUhNj7JO2wSE+w8PMt2dB98TfGwBzvVwCrGtWe7RklYeLgHnRqvMPrf6I10fL1lhbtfViESBXzNbXwTFg1vbscaO/xvbfAOAOLU3QwN8i2CfAO5BM2WAmy9N5HJBOAtopG967F20r0E5YcmwMrZuJgJtiX4G3uTUaaM0GWrMFNoF3cADl/MQ+gLJRrVmjXMbyKVptddVqS8sA+RHa6AFgXrDq4iOrr6xYo5i3jVrVpL056DfHbX1hjF8DgDu0OAHAzwhWIGuaywPJYcCJxp0CtHumLLVXZrJ+34UJPW5DWTTyMJoZDY2yBqcbaEiABXAbANPQsHrdEJDZpM0d4IlE9Bn+r78N6Dv5rPZdr1TQuNLKq25aV9DGVczqyoMFTOt5zOq1pjauR8dtPRyeuYy4/TcAuEMrEgD8hGBdQw7ZgEzm9Igl0K6pPXssMz1t6cP7Ae5uzGQBdwSTOhl9UMADqBv4s/JpG1WAVdcrP5Wq/21DYAbXftwU4BXo0dYDAjLHGUwmbQC/eRAfu2V6N2p1a5TKAHnFyg/mrXTzrpWuzVoFrax4RKNUdN/YTeoeAHEA8BP32Vb+GgDclKa0rrShzOARTOaJHTa8fw/APWTZ40ctjdmc3DFmQ/i4A5jBCizVSyWCMEUCUQVbJ/BXl69argAutCg+64YADJiliX3TgwGgDgBg19xp+dUETzI8LEb5TgJgCWn1Eb4DcAv1DTRydQkQE+QqXJsjoHjbKgp0ESx8yqRWkCvGWwBwhxYnABjBonkHBtG80oiYzKldRJePANzTJy1z+ICldk66nzsw2ATVej3yVxV4IuhUuT9vNQJQ0paKHK8D7A2At8F+bj7LrNam78FH9u+RFh4hoj2qiPYE37kT3xrzfArzfMdE5FcnIi0v01rR2urDJSvdumuFy18D5Fv4x2jj/Jpr/7hr4gDg6BbY8n/7HsAym/lxszZDqkOpoSNHLDMzbbmTmM74vtKS2hrVqqd9BFSPGD/AP8W8VaCptkTahwCUR4wrZbQu4P221I9AjLY3PSw47tAIGndMATI0Pt/tQTJ8bD00HMhoZkXAXRuj3cv4xIWrc1a8dt1K1+eaIF51Te3Bspia0wHAfgtt/T8BwNKIQ2jCMXzcfTYyfdRG3z5tGTRwClBJS8q0Xgc87o/evW/5q/iit24DHtI9q8sedNqQyYwPLH/Xte63gbe1fP7QaJrsmNUD8oEB6ZBMaYEZLZw+dNCyPERGDuxDQ5OeGk55oGsdv1gmdenWHct/+ZUDuXLnLg+PZf9uvrz1LbF6DQDu0HL0NYClDTFTlSZSTjdzfNqyp2Zs9NQJNO8uM4BlpGzk6ypPW6LQojh3i2DSNfdD68vkacnjRkGq1wSOfHAPnqmgYNxS+/ZhBcxY5ughG6FQRBo6gW9M+Br/u25lTPfClav8XLPi19ewBO7beiFKM3XoVnmtwwYAv5b4vvvDfQtgaUFyP4OZXDPSjOb93luWOXbY/VBpQ0WOVSlVQuuW5m5anqo0aTuZy41iwdM5XiW1FTnZ5vnIGlDueShLQItAWvrgAcuewRfnvNJ7d1uSQJdyydLEquAqXr9paxcvW2n2OukmNHFhzTX1d694d94JAO6Q3PsWwG66ptBsO21EmpcSv7G3TlIauYcIcdrNYPmzJQJUBUr9ivqZnbWayl5rVEUpddTyN1uvr7tGDmK55DxcHMjDlty5K9LEmNPZmWOAeIqodcb3qRMoUwBt7aurViSwVbx6lUDXgpvyJJVf92y29PMBwFsqzm8O1q8Als+p2tfhgwct9/ZbDo7MoQNUVo26cGpo3jKaV6mb/KWv3Of1aihq1r0Syn1NVHQzwPyNRF/zNxkGqgoBxJFJnUETT+ATH4rOc/qIF5UkclkHcY3CjtKtewS2Zm3t/EXO8xZ++YrJJ4/TFgDcodXoOwBLu/HjQat9BzzaPPr2GRs5cpCg1QQuZsLTQGU0W/7yNfczS7PX0LyLj4NUjtqt0rrfta5NIA9wPgpyJWkeyeCbZ0/MRHlpfHSZ+Uox1R6tWJG00tr5S1YCyOW7d0hnrXJkPWC2+gnzXSe8+d8DgDeXzyu/23cAVrEGKZzkrt3keU95rjd34hgpnF1eHaUKqioBq+LsDVulG0upGoHXK5+8JHIbQeEgjqLVCrQlyU+PHDtqY++edZ9YqSZVdCm9JX9Y6aUCfnqBDrfqwgMvNolLVDoA+JUhuvkH+w3AraizWttG33+HiPOMjWA6JyioUOFFFW1WotopT3Q3f/6CB4Y80kzkt5ubnzc54+H9+y2LyZ87eZzzjqwGmdoq9FCUPH/5qq396XMr377VLLekEiwGWwBwhxah3wCsvG5ykjzr9DEb/4C+1BnKJMm7qmVQEecilU75C5fQZteodrpp6ytLT/i8HVqElzlss8EiMU5k+shhD2yNvnUKEO/3h48aKCoPH7kvvPLnL7xuuvboISAuvczRO75PAHCHRNxXAJbvO0bTtiqtFHUmbTRCqaQCQp5bpeMnf/W6rf7lr1a+ft3qS9Qbk+eNzcb5qyc5uXOnpY8esbH33mnWae/2hgjVZRexHlbPXfSodOnGHAUeEDHEwA8OAO7QXdQ3AObmVwljcmqP5d75nuXQXtK+w7smifYmiNyuwUJyi1zv184kUrlzh3pmsWF013R+dtkV0BqUKb1vP9dx1nIKbB09TER9LHIB0MJ5fGFVaeX/eo4WRHxhAbjLIA4AfnYlt+j/fQNgb1ZIkjY6ZBM/+FsbPXvK0gf2evePAlfqt1U+NX+JoogrV6J8LxHeuASBHi9305T2qDRWhAJxTmmkmu0kD6JCydNfKu5Y/r9PKDy5GQWzupwXDgB+vIJb+0u/ALgVvBo5esx2/OiH3PQnXfuKu6pO83zhxk1b/SumJ2WJlbu3vXEe9HZdcz232lgSyhMP0aucPnAIV+B4FJWm7TGhHDb5aVHxrF26Yo/+93dE0WdxA9Q7jCXRRS0cAPzcSm7NH/oFwN53CxHdyIkTNvn3P/AobgoQqF+3pF7bK7O28pcvrDw3B6Dl+9JRFOPtcTDuGGkloumq0hqBMUQEASIlXCOK/ug3v3dfuL5K6adfjx5I3bmoAOAOyb1fAOw30H4KN06dsom/ed9ZEVWSqMCPGELXLn2Nz3jeyndue52zWDXivEX10rQ/Uis9+ja+8GnMaXx6kQKoH1k10kuf/pm88GUaL+5ZI7/aVV84ALhDd1PfAHh80jKqYnrrtI2/Q/SZNj2xYlQhkFvF3MxfIOhz8aLV5u9TcaVG/HjVEj+7/F6hRRFHiqCcrinHzxhtkGqBVGFHiaYLuQT5i7QcUsO9TkT9W/uTnz1wh/4fANwhwfYLgFV5lXvnHeqJ4bE+dRz/Fx5rAlsVmvFXz39JR88lKxLAqpM77eaN/tLLrKg6uevEjp3+YMqhhSfe/553LDXwd70yCzN6DQDnz12AMWQ+eih1yQ8OAH7plW1vx9Ru0ioffGDj70LsTjdOknSEzMrSDRG7n/cWurLnE5efOnCvEbun9u63cUWfqWJSs74I7NWUoIaF5S+4TgCsPl8VbvTMBog9r01gTg8muQayLNTNVFtRYI76aCyL1c/+BEUtaTGut1tR9QDgDt1VDuD33yeSKQCfcnLyOrSmpZt3IhOMTpwSRQ3P3tg9BWACt8NEbHf844+8eENTFEQcp55aFT7oQeUTKG5RefXMBIoOiX3LDjuUIxpNaizDVA0BOENThtdHE7Qq35u3VarKln77e7qUSCd1MS0WALxlS/70gdy0fPcdG6MoYPTsaRvGh1rHhyqTFy3QjaMm9qLyojLBWr4hZljPAfjwMdv5Lz/G0jgbFW/Q0KBorVcu4Suqi6fFavG0hOL9v6EsbCKiAmIUyDjR6Mzhg85yqbRRBUL41XNf2eKvPyK6fj0AeJOl7NnRKgnqgjXjSKalgiAiMFeeUWa0msVVWigfSnXB9RV4l3iyQ19urc/1xGwkTMr00Wmb+vnPAPBbTsqu6QjuKty550GsCppYtDmxKp3c5IZrvSX+atHtiEXTa6NVnEK9t6ZC1FfWXAMv/OJXMHZcjQo6vI+59entew0auEOyHtJAJ25uUaiOKTp7cL/3mSphWOMGEHnaKn2mXuBAs7hMTEVoew7A0zO2599+7kPcknQePaalofSwiK9YhWOqnodTCi7nXtoGILtT6ihFO2QWEKs0VAyb8nX1gFo596Ut/NcvIb+7EgC8ycL2rAYWibkI3UaYPjDGhMIMrIxp5v7Ij9KYD432UG1tgQhtHsaH2kNqawmGJKCi6YnphM3G+JGZk7b73//VJrhGkacrgrtBCaX8/Rp10LrZRaIecVxtstIxeyuamAiIuSYFIKV9NeVBzJjy8QXg+f/4bx7Al5vVWK9JvveK1x808CsK7kUf0ySCodFx7zPNEQjJUNEjP0qT9rRVVyB1I6eYJ1e68ukfrQrbg4IhvQPgqPQwfbylgc86MZyaApz+lWtR2kU/HuThxu+pTQQFkMUP4tPrx8TgockRxCv0cFrloTv/n2jgqwJw92q7A4A7dFeJnUL8UMkdEIsfOIA5fRSCNxgqmAOkSiUv9IftQV06UXH8Lb8Reg7AuAm7fvYTL+JI7Rino4fxJTQGaPO8r6YneI60S7WGr7y+PKDw8eUSOBke8Qt1H6l0UqmkFdyfxV9+iA98LQSxNpFxz5rQPK7dnFSLWkIgZgaQaFvEzqjJAHq/DnFaEXI35RMr93pNA2vVBrAwDtrE3/2QgeTRMHJFb2VGS1u9SZtPSMTFWdcolsWl6MH7+z/QlcSDN+SBv3OpexjAuoF5euM3afp8QgOsdzGfhx8FRjTMS76hBmoVyAnXFqEtdRM6il73RhQaltYJKpZOnsTCgPcZfuUhmvjd5JT2epM2aV/WR8PWNDmiRJeVKGfrS5DyqTzUrYztv+BgQnda5k1N/Hg6H5FaaWTVC3tAhLk/ZYjDG2hjmZw9FYVGdrIwklMQo1NCKXdhSNzK+I6yMN6oDYDqAauGhjoE9DVywTW4ohtoZKX/AoC/fbV7VwO3rsc1kepruaG9+V10psywJUji6053TqPFUMFN0lOFHFxjq/hf/r7P48V8dt+xdf1v0msTxJoxLBJ6n9sEqLsFXok2aOCY3WC9BuCYia/vTicAOGZL/g2AT0eULmJ2RItXGTy9dnnWCjQHrJ07b/XF+ZideTidbkjgGwCftPHvv+v92EniLaLDzTO2ZvWLC6QpP6Pp4m43To+h6xoqR1HTmTM2+dN/hkB/+rnzGCgUCo9zFGoiX/rwYytCwl3XvB1oT3ppe+wDqwyzGdkVPY1HPmG3yF/8khLM815D3UvXFc61MxJQ04W4uDOnBGAYRBjW5gAm2KZxrQ7gTwDwgwDgzqzAM0d1AJ9RI3kTwESsBeAaDfJ5AKz+2vwXfw0AfkZu/fpfB7C6pijZHf8AAJMNSDK83Ol/0MBrNJSsBABv3+3hjeSkZXKAePQsU/1IzSgVVV0mZ4x1IXL01T9/TirjPifVvejn9kkkfNNmEhiCkH7k2DFGpZ7yzjcnpGe2U2017zOOxWW9+kf6lh/c2+wwHXuv70xoXxDqp3NqgoAgPc0QavXYitZUvcRrAHj5k08pvbzd1QKCjq14OPDLS4DYSGJyyrm7srSs5k7PUG/PLCqGqzuDJnnqNbGifP6F81i//IG3bs/+A3DLpzk5EzVBOMsF5OLUFJehqcnDsbz8yR+tfONGRBJXq0a1x10qJNi6pQ5HeikJKC3Jj1e7pdJeaz/2HqNszsxEPcuiwKXu3O+Vi1dwub5kKNtXUBotvNTht3qnvgOwF0YwfDqNWTT+/ffMJ/xN7fR8q7p71KInrqkS/k1Fk+PVhthqGAgg3ur7L17HE3i9yWKIApqcj4IZYRaVut2yx45YaueE3ycaoK5ZVGt0TGmqYgnSgfXVp6mbtuvC+g7A3sWUJbLI4GnxEmtangZkq61tnaKPqgZtQW1aYlxJmXI+Bbe8XY8JgN0sKNiuG+K570HbNOgG8sKKCqQIepip82mrH2YCj0pjKcgRmb2KcdQfrEIWL1zZjspRaV4VAxETSYyOWWof9fUMZBs9DZng3imq+yjPxSKrLNCLTbxE/m9p9rozojSKhedEtx1/6D8Aq22NqqbUnj1EFqNccHZmOqKrocpJtDwCrYBcmV8kWAEvMf23KvPzkr7tWJW4fIdieBAFrFOGWiNPLuqeuuQht0IVUlu5eUks7YUwdSRoE00yQzi1G9BQGqsJjF462mEQA1+v4FOnm1P+oHFTlLAOY6HpAa/OqarIIuZuesZCNQPi43YrjfumG1vfAVg3gvwbD2aREsgcPw6rxwlnRUyO5XyINlX1VqepXGM71VwemdA91m+7FXcTAPb2Pka4lG/dhmvsCnRFkK1jQm4ZgbxrPdaEPmdNMExMTNASuofc6z4CjIwgpdl/UFpYpbHaOg1imdD8DKaHAW3WWV4GYQ+RxbFersC5Bl0T6cYSo2yKV69Fs6iqlH3KQuvC1ocAjkw194Vh59CEgAwBrczRQzaCyZSk53aIm0lmmzfLA+aNxz23XVihLn9lAw2sB1metsyVP3zmTJ91Rn+qTvm1N4GXh6nAO5RVN9kUQaN9rMURwLsXINNVls0B4Gb9d4fB69ejc2o9VNx8B7u4DMr7Vh4ueqZCfm+ZWEnlwQOaLWiS8Xrt7jzg+w/AzbuuNTneZ9YyYCt9GG189KCT4yWJNCq1xN3Fg5+7hgV94ze/xOa1epO9NJEeYjB/0GS/BtPn4kcfE7Qh4vq6M5gkz6bJ7DdgDvBOTQHag/icVD3BrDKM+ZzAItLMJKXjo002fev3Dr6ibb0/mVdNi6jni1TqAd7b96xMbKQ0d8PBu66xL/4g26bz+pZL7lsA+w2UULQxC9sjvg5mmxgSpQFEsCaeJgVRIroXzLc3HMR+efwjjaiuJ123NKO0kfp0Vfe78KuPqBX/En/4oTVo+3ulTd+hL+P47u+OjVuK4WZpgoriNRPBe2pn1DY5SEDLW0LlX3IO+h1MdXbTF7QCdwQ1pXkVExFXtYBbZaCcwOyat0ZspKHgZmdPabOj9y+AJRW/YXUjURDOxD8N0RYZgAIXyXHoa6i4kf+jmzqiftlMlL3+nmIDke+nWt+E+qoJ3Lj/x6WtAeD5X/zaChcYd0INfKPUZg18U8O7yYxpOpjJNplUIvCOHIYWSZxmgDdBtFdbnai3GvxFsaNYhIDlNEL+7tb/4w8H/pFJLEomdx9ILXpQkxqB6n2CeMtQ+MLZpRhAHEbZ9DeAdQ+0TDlpHZg91DA/qOAFP6I9VTAjIlzjBvebcOtvnFgcsZk+keWh6rQ0WnGYh5lHX7nw1wfwN/7uYBqrh4fkyJEjnqaR2SxebwURhyArlPm6Dkg0wE0zoMqYrgKxgokCcac2AdhTZMQ9BF49pNZh/RRtr159XrFMZih+4gBeySEAuHU3SBsLoQqqJJSDTLsfrLyxiAI8CtrUIq2PvEmvMld1rbI+MjNE5qcBlzQigNaTa43Om1fSwI81LyY5LklC/i6FNMNEmLPHp/mOA04VJM5rRX8197i+2gwY3b5LmuYevFgU1KAJRa3TUECxI5vQy4GFYgUuMY8Vdd7ACmgItMp/i1xe78doCwB+cjEE4GYusFWRIw3tqtdvRO38+JcnP9nzv7vvC8AUC1CjR5a635zy4+RjXw/ATc2rvlUVR0A+mJkh6n+MqD8gdn8XF0byloatKWXF4LYiuVZPWzEjuL4GrY5ABIA6h58ngBmpYkxpACuzXVo/huD1u1Fy7ad+4J5HWocuoEXTq3lFGleTO3vKcqdOWJoihgjA119JA3t+F383ORExh6apbMqeRPMeEHgnsHTgLgMoj01mgkSFWSrhGExXnpvziHfHqr86JMvtPGzQwNsp7Rh/V0cAjEWjPG5q3373dbMnKZiRyazKJlJ1niLCJK7ja1YePLTCtRsUR1x38FYX5gkWMTJGVXAx1X5xWM4A4DisQgzOYcsADGhFPN/SvCnyu2oIyBynp5bpGZ7fJbqvqL4iveLuVsmqZlkVGOytLrDKXXxeCiQ6aC/HQOJbcwoBwFsjx54/ypYAWODFl1WRTAKTOa0oM108CogN799rKQj3h6DJVbpKgaHq4rKV7t6zAikqr2yCw7u+9AhzGs1LEClsL5ZAAPCLZdQXe7wWgJvAVQTfJ2WMUc9MQUYWHzpDvXma4hjNrBKwFRBqENlVQ3yJKLO6vgpXqSlWjpUSTY1J7eYkhl5b7ADgXluxDp3vKwP4SZMZ7eoTI5UeUlUV+eRhWD+VIlJ1l8Bbo666QkNA6eZdfN7rniISgbtM6Y2qGkfU5UREuHPh5g5JsDuHDQDujtxj961tAxhNqei0PjcIc4WCVSrOGD50ELZPRsE0q6qGNDZUKSJaEMUjVX6wwNiU2z46RWZzVVVd9NJGLYrNdE3spBPfEwoAju/abOuZtQ1gzGAHL7XkykOqBXBExR9UVY3Q4eUlkeR3NwD5uiYOPlryQJV4x0o36eS5/8BHqDh4VZaonGvQvG2veQBw2yJ7Mz/w0gCmmUGBJvW/RvXMk1RSUc+Mxs0eZzokLZkag9oqidSs3ypzjkpUVBWvE2G+eTsC7wpMJ9LiMa1w6pVVDgDulZXq8Hm+HIA/suJXtBPirw7SyaWhawpWeaCqWT+dGCe/q2AVAK9jMlfmH1oR0MpcVqqotrBAg8KaB7Ie99EGf/eVVzcA+JVF92Z98EUAzs/esIUPf2Ola7OkgKr4vBlaADGX0bxRcQaNDxCeqySzQQqoDvVMmaqqEuRvJWlecrtVgbegFFGTkicA97VvogDg1xbhm3GAFwG4QOBp8bef0Bl0F3K3pCUnJ5lZLBYTWjBpARxUsEr+LjOZvZ5Zc5mvzqF5b2Iy36clb8nH8Gxo8mCrtvjNEF1XryIAuKvij8+XvwjAih6vMEakSjAqQcul6piV302qOIOeaW8BpMlf7ztzhSLN1DNX0MK15WW6euDRUqBKZZFh2zIJBABvmSh7+0AvArCm8ZXuwgFFY/0gdEMJyiHV9N/K7+r9CkyeMpmdMwq/t7YofzeqqopYLEN+d6vvkgDgrZZojx7vRQDW0O06bJRqZhdvsjNrkN+VP1zD360sPHTzWm2AxauzBKtoRiiR31UTfvB1O3ZXBAB3TLS9deAXAVggFMGdg5GWaJnDClapJFJ+cREyfNGsVtS/u0JJJB1Gj6PMvSWKnjrbAOCeWq7OnewLAUyASpvzRSnKDFeVg1fN97NzUaT51i38XYJV0rqwWoSt8xIIAO68jHviG14WwOKKqpEHLt+ftyJc0SrOUKS5igmt/l2Z1B6oCmbztqx7APC2iDn+X6IZRD5yBsobDT/PMU5TNc0tRg5Ryzp4RXlDGaRKImUyl5jYUBPBueqZpXUDcLd1sQOAt1Xc8f2yCMCQ2u1uzoyCUmcMEKsBXzRg66SIWo33eYJUFTUiANyaSiLl7xLkAr0BwNu8xAHA2yzwuH5dNJWPRvwdk5Y+etR7ecfePm0p2gHl94rWtUwppMavljCdxZGsyQTq7Q2NCN1b1QDg7sk+Xt/s/Ng05FOkkWRmVJpxMzKlk5PjTqpeXVyyCuZyFfO59miRemjyu7BqhPxud5cxALi78o/Pt6u3Vz80IjiId4rL6qgNQW6vgdZ1jVydn49SRGWZzGoBDD5vtxcwALjbKxCn7xeAxWn1xOiTQQZtK7Ks1r91BaqodVan0TeaN04X0H/nEgDcf2u++RULxIpawbShqLSzaSi6rL5dzcClgMMHnYdo8+Zy3KZ3A4C3SdA99TWAWKFnsUd6CFrRZfib1bAQIs3xWskA4HitRzibIIG2JBAA3Ja4ws5BAvGSQABwvNYjnE2QQFsSCABuS1xh5yCBeEkgADhe6xHOJkigLQkEALclrrBzkEC8JBAAHK/1CGcTJNCWBAKA2xJX2DlIIF4SCACO13qEswkSaEsCAcBtiSvsHCQQLwkEAMdrPcLZBAm0JYEA4LbEFXYOEoiXBAKA47Ue4WyCBNqSQABwW+IKOwcJxEsCAcDxWo9wNkECbUkgALgtcYWdgwTiJYEA4HitRzibIIG2JBAA3Ja4ws5BAvGSQABwvNYjnE2QQFsSCABuS1xh5yCBeEkgADhe6xHOJkigLQkEALclrrBzkEC8JBAAHK/1CGcTJNCWBAKA2xJX2DlIIF4SCACO13qEswkSaEsCAcBtiSvsHCQQLwkEAMdrPcLZBAm0JYEA4LbEFXYOEoiXBAKA47Ue4WyCBNqSQABwW+IKOwcJxEsCAcDxWo9wNkECbUkgALgtcYWdgwTiJYG2AVycvWFL//OxFa9csfWVFduolON1ReFsggT6SAIDyZQN5XKWPnXSJn/yT5adOfbc1Q8UCgWNZveteB0Af/Q7K8/O2UatZhuN9dZb4TVIIEhgmyUwMDBoA4mEpaeP2Y4f/4Nlpo88dwZPAbhy74Gtfn7BqvcfPLdj+EOQQJBAdySQ2rvHxt5/24b37XnuBJ4CcKNUttryiq2XK8/tGP4QJBAk0B0JDKWHLTkxboMj6edO4CkAP/du+EOQQJBArCXw/3w5QArJYvdQAAAAAElFTkSuQmCC;" parent="nTLEF9N3Q-XhvltVpLBN-24" vertex="1">
          <mxGeometry x="120" y="68" width="85.43" height="84" as="geometry" />
        </mxCell>
        <mxCell id="nTLEF9N3Q-XhvltVpLBN-27" value="" style="edgeStyle=orthogonalEdgeStyle;rounded=0;orthogonalLoop=1;jettySize=auto;html=1;" parent="1" source="nTLEF9N3Q-XhvltVpLBN-25" target="nTLEF9N3Q-XhvltVpLBN-26" edge="1">
          <mxGeometry relative="1" as="geometry" />
        </mxCell>
        <mxCell id="nTLEF9N3Q-XhvltVpLBN-25" value="1" style="ellipse;whiteSpace=wrap;html=1;aspect=fixed;rotation=0;gradientColor=#223548;strokeColor=none;gradientDirection=east;fillColor=#5b738b;rounded=0;pointerEvents=0;fontFamily=Helvetica;fontSize=16;fontColor=#FFFFFF;spacingTop=4;spacingBottom=4;spacingLeft=4;spacingRight=4;points=[];fontStyle=1" parent="1" vertex="1">
          <mxGeometry x="590" y="116" width="30" height="30" as="geometry" />
        </mxCell>
        <mxCell id="nTLEF9N3Q-XhvltVpLBN-26" value="Usuario envía un mensaje al número de la empresa en Whatsapp Business (Meta)" style="whiteSpace=wrap;html=1;fontSize=10;gradientDirection=east;rounded=0;pointerEvents=0;spacingTop=4;spacingBottom=4;spacingLeft=4;spacingRight=4;fontStyle=0;align=left;dashed=1;strokeColor=#3399FF;strokeWidth=0;" parent="1" vertex="1">
          <mxGeometry x="660" y="121" width="570" height="20" as="geometry" />
        </mxCell>
        <mxCell id="nTLEF9N3Q-XhvltVpLBN-28" value="Secuencia" style="text;html=1;align=center;verticalAlign=middle;resizable=0;points=[];autosize=1;strokeColor=none;fillColor=none;fontStyle=1;fontSize=13;" parent="1" vertex="1">
          <mxGeometry x="494" y="199.75" width="80" height="30" as="geometry" />
        </mxCell>
        <mxCell id="nTLEF9N3Q-XhvltVpLBN-31" style="edgeStyle=orthogonalEdgeStyle;rounded=0;orthogonalLoop=1;jettySize=auto;html=1;" parent="1" source="nTLEF9N3Q-XhvltVpLBN-29" target="nTLEF9N3Q-XhvltVpLBN-30" edge="1">
          <mxGeometry relative="1" as="geometry" />
        </mxCell>
        <mxCell id="nTLEF9N3Q-XhvltVpLBN-29" value="2" style="ellipse;whiteSpace=wrap;html=1;aspect=fixed;rotation=0;gradientColor=#223548;strokeColor=none;gradientDirection=east;fillColor=#5b738b;rounded=0;pointerEvents=0;fontFamily=Helvetica;fontSize=16;fontColor=#FFFFFF;spacingTop=4;spacingBottom=4;spacingLeft=4;spacingRight=4;points=[];fontStyle=1" parent="1" vertex="1">
          <mxGeometry x="590" y="146" width="30" height="30" as="geometry" />
        </mxCell>
        <mxCell id="nTLEF9N3Q-XhvltVpLBN-30" value="La integración (previamente configurada por la empresa) envía el evento al servicio AWS End User Messaging Social" style="whiteSpace=wrap;html=1;fontSize=10;gradientDirection=east;rounded=0;pointerEvents=0;spacingTop=4;spacingBottom=4;spacingLeft=4;spacingRight=4;fontStyle=0;align=left;dashed=1;strokeColor=#3399FF;strokeWidth=0;" parent="1" vertex="1">
          <mxGeometry x="660" y="151" width="570" height="20" as="geometry" />
        </mxCell>
        <mxCell id="nTLEF9N3Q-XhvltVpLBN-32" value="1" style="ellipse;whiteSpace=wrap;html=1;aspect=fixed;rotation=0;gradientColor=#223548;strokeColor=none;gradientDirection=east;fillColor=#5b738b;rounded=0;pointerEvents=0;fontFamily=Helvetica;fontSize=16;fontColor=#FFFFFF;spacingTop=4;spacingBottom=4;spacingLeft=4;spacingRight=4;points=[];fontStyle=1" parent="1" vertex="1">
          <mxGeometry x="190" y="-388.37" width="30" height="30" as="geometry" />
        </mxCell>
        <mxCell id="nTLEF9N3Q-XhvltVpLBN-36" style="edgeStyle=orthogonalEdgeStyle;rounded=0;orthogonalLoop=1;jettySize=auto;html=1;entryX=0;entryY=0.5;entryDx=0;entryDy=0;" parent="1" source="nTLEF9N3Q-XhvltVpLBN-34" target="nTLEF9N3Q-XhvltVpLBN-35" edge="1">
          <mxGeometry relative="1" as="geometry" />
        </mxCell>
        <mxCell id="nTLEF9N3Q-XhvltVpLBN-34" value="3" style="ellipse;whiteSpace=wrap;html=1;aspect=fixed;rotation=0;gradientColor=#223548;strokeColor=none;gradientDirection=east;fillColor=#5b738b;rounded=0;pointerEvents=0;fontFamily=Helvetica;fontSize=16;fontColor=#FFFFFF;spacingTop=4;spacingBottom=4;spacingLeft=4;spacingRight=4;points=[];fontStyle=1" parent="1" vertex="1">
          <mxGeometry x="590" y="180.75" width="30" height="30" as="geometry" />
        </mxCell>
        <mxCell id="nTLEF9N3Q-XhvltVpLBN-35" value="El evento se publica en el tópico previamente configurado como destino. El evento se envía a AWS Lambda suscrita al Tópico" style="whiteSpace=wrap;html=1;fontSize=10;gradientDirection=east;rounded=0;pointerEvents=0;spacingTop=4;spacingBottom=4;spacingLeft=4;spacingRight=4;fontStyle=0;align=left;dashed=1;strokeColor=#3399FF;strokeWidth=0;" parent="1" vertex="1">
          <mxGeometry x="660" y="185.75" width="570" height="20" as="geometry" />
        </mxCell>
        <mxCell id="nTLEF9N3Q-XhvltVpLBN-41" style="edgeStyle=orthogonalEdgeStyle;rounded=0;orthogonalLoop=1;jettySize=auto;html=1;" parent="1" source="nTLEF9N3Q-XhvltVpLBN-38" target="nTLEF9N3Q-XhvltVpLBN-39" edge="1">
          <mxGeometry relative="1" as="geometry" />
        </mxCell>
        <mxCell id="nTLEF9N3Q-XhvltVpLBN-38" value="4" style="ellipse;whiteSpace=wrap;html=1;aspect=fixed;rotation=0;gradientColor=#223548;strokeColor=none;gradientDirection=east;fillColor=#5b738b;rounded=0;pointerEvents=0;fontFamily=Helvetica;fontSize=16;fontColor=#FFFFFF;spacingTop=4;spacingBottom=4;spacingLeft=4;spacingRight=4;points=[];fontStyle=1" parent="1" vertex="1">
          <mxGeometry x="590" y="219.38" width="30" height="30" as="geometry" />
        </mxCell>
        <mxCell id="nTLEF9N3Q-XhvltVpLBN-39" value="AWS Lambda ejecuta la lógica de negocio. Por ejemplo guardar los mensajes, validar y responder.&lt;div&gt;Adicionalmente invoca un Agente de Bedrock que implementa Text 2 SQL&lt;/div&gt;" style="whiteSpace=wrap;html=1;fontSize=10;gradientDirection=east;rounded=0;pointerEvents=0;spacingTop=4;spacingBottom=4;spacingLeft=4;spacingRight=4;fontStyle=0;align=left;dashed=1;strokeColor=#3399FF;strokeWidth=0;" parent="1" vertex="1">
          <mxGeometry x="660" y="214.38" width="570" height="40" as="geometry" />
        </mxCell>
        <mxCell id="nTLEF9N3Q-XhvltVpLBN-44" style="edgeStyle=orthogonalEdgeStyle;rounded=0;orthogonalLoop=1;jettySize=auto;html=1;" parent="1" source="nTLEF9N3Q-XhvltVpLBN-42" target="nTLEF9N3Q-XhvltVpLBN-43" edge="1">
          <mxGeometry relative="1" as="geometry" />
        </mxCell>
        <mxCell id="nTLEF9N3Q-XhvltVpLBN-42" value="5" style="ellipse;whiteSpace=wrap;html=1;aspect=fixed;rotation=0;gradientColor=#223548;strokeColor=none;gradientDirection=east;fillColor=#5b738b;rounded=0;pointerEvents=0;fontFamily=Helvetica;fontSize=16;fontColor=#FFFFFF;spacingTop=4;spacingBottom=4;spacingLeft=4;spacingRight=4;points=[];fontStyle=1" parent="1" vertex="1">
          <mxGeometry x="590" y="255.63" width="30" height="30" as="geometry" />
        </mxCell>
        <mxCell id="nTLEF9N3Q-XhvltVpLBN-43" value="La respuesta al usuario se envía usando el servicio AWS End User Messaging Social&amp;nbsp;" style="whiteSpace=wrap;html=1;fontSize=10;gradientDirection=east;rounded=0;pointerEvents=0;spacingTop=4;spacingBottom=4;spacingLeft=4;spacingRight=4;fontStyle=0;align=left;dashed=1;strokeColor=#3399FF;strokeWidth=0;" parent="1" vertex="1">
          <mxGeometry x="660" y="260.63" width="570" height="20" as="geometry" />
        </mxCell>
        <mxCell id="nTLEF9N3Q-XhvltVpLBN-48" style="edgeStyle=orthogonalEdgeStyle;rounded=0;orthogonalLoop=1;jettySize=auto;html=1;entryX=0;entryY=0.5;entryDx=0;entryDy=0;" parent="1" source="nTLEF9N3Q-XhvltVpLBN-46" target="nTLEF9N3Q-XhvltVpLBN-47" edge="1">
          <mxGeometry relative="1" as="geometry" />
        </mxCell>
        <mxCell id="nTLEF9N3Q-XhvltVpLBN-46" value="6" style="ellipse;whiteSpace=wrap;html=1;aspect=fixed;rotation=0;gradientColor=#223548;strokeColor=none;gradientDirection=east;fillColor=#5b738b;rounded=0;pointerEvents=0;fontFamily=Helvetica;fontSize=16;fontColor=#FFFFFF;spacingTop=4;spacingBottom=4;spacingLeft=4;spacingRight=4;points=[];fontStyle=1" parent="1" vertex="1">
          <mxGeometry x="590" y="285.63" width="30" height="30" as="geometry" />
        </mxCell>
        <mxCell id="nTLEF9N3Q-XhvltVpLBN-47" value="La respuesta al usuario final es entregada por Whatsapp Business" style="whiteSpace=wrap;html=1;fontSize=10;gradientDirection=east;rounded=0;pointerEvents=0;spacingTop=4;spacingBottom=4;spacingLeft=4;spacingRight=4;fontStyle=0;align=left;dashed=1;strokeColor=#3399FF;strokeWidth=0;" parent="1" vertex="1">
          <mxGeometry x="660" y="290.63" width="570" height="20" as="geometry" />
        </mxCell>
        <mxCell id="nTLEF9N3Q-XhvltVpLBN-49" value="6" style="ellipse;whiteSpace=wrap;html=1;aspect=fixed;rotation=0;gradientColor=#223548;strokeColor=none;gradientDirection=east;fillColor=#5b738b;rounded=0;pointerEvents=0;fontFamily=Helvetica;fontSize=16;fontColor=#FFFFFF;spacingTop=4;spacingBottom=4;spacingLeft=4;spacingRight=4;points=[];fontStyle=1" parent="1" vertex="1">
          <mxGeometry x="190" y="-250" width="30" height="30" as="geometry" />
        </mxCell>
        <mxCell id="nTLEF9N3Q-XhvltVpLBN-52" style="edgeStyle=orthogonalEdgeStyle;rounded=0;orthogonalLoop=1;jettySize=auto;html=1;entryX=0;entryY=0.5;entryDx=0;entryDy=0;startArrow=classic;startFill=1;" parent="1" source="nTLEF9N3Q-XhvltVpLBN-20" target="nTLEF9N3Q-XhvltVpLBN-6" edge="1">
          <mxGeometry relative="1" as="geometry" />
        </mxCell>
        <mxCell id="nTLEF9N3Q-XhvltVpLBN-54" style="edgeStyle=orthogonalEdgeStyle;rounded=0;orthogonalLoop=1;jettySize=auto;html=1;entryX=1;entryY=0.5;entryDx=0;entryDy=0;" parent="1" source="nTLEF9N3Q-XhvltVpLBN-20" target="nTLEF9N3Q-XhvltVpLBN-19" edge="1">
          <mxGeometry relative="1" as="geometry">
            <Array as="points">
              <mxPoint x="522" y="-350" />
              <mxPoint x="522" y="-193" />
            </Array>
          </mxGeometry>
        </mxCell>
        <mxCell id="nTLEF9N3Q-XhvltVpLBN-60" value="Amazon DynamoDB&lt;div&gt;Messages Table&lt;/div&gt;" style="sketch=0;points=[[0,0,0],[0.25,0,0],[0.5,0,0],[0.75,0,0],[1,0,0],[0,1,0],[0.25,1,0],[0.5,1,0],[0.75,1,0],[1,1,0],[0,0.25,0],[0,0.5,0],[0,0.75,0],[1,0.25,0],[1,0.5,0],[1,0.75,0]];outlineConnect=0;fontColor=#232F3E;fillColor=#C925D1;strokeColor=#ffffff;dashed=0;verticalLabelPosition=bottom;verticalAlign=top;align=center;html=1;fontSize=12;fontStyle=0;aspect=fixed;shape=mxgraph.aws4.resourceIcon;resIcon=mxgraph.aws4.dynamodb;spacingLeft=-11;" parent="1" vertex="1">
          <mxGeometry x="950" y="-103" width="78" height="78" as="geometry" />
        </mxCell>
      </root>
    </mxGraphModel>
  </diagram>
  <diagram name="transcript" id="IDQuVLfhqmyOfxwkJ_zY">
    <mxGraphModel dx="1674" dy="1254" grid="0" gridSize="10" guides="1" tooltips="1" connect="1" arrows="1" fold="1" page="0" pageScale="1" pageWidth="827" pageHeight="1169" math="0" shadow="0">
      <root>
        <mxCell id="EOUOIk4LcYDYwFllFdzi-0" />
        <mxCell id="EOUOIk4LcYDYwFllFdzi-1" parent="EOUOIk4LcYDYwFllFdzi-0" />
        <mxCell id="EOUOIk4LcYDYwFllFdzi-6" value="AWS End User Messaging&#xa;Social" style="shape=image;verticalLabelPosition=top;labelBackgroundColor=default;verticalAlign=bottom;aspect=fixed;imageAspect=0;image=https://d2q66yyjeovezo.cloudfront.net/icon/389b3317b1ea2cb5476d10e654acabc6-4178d59baa7bb1bcf84371503b88f71b.svg;labelPosition=center;align=center;" vertex="1" parent="EOUOIk4LcYDYwFllFdzi-1">
          <mxGeometry x="676" y="-261" width="80" height="80" as="geometry" />
        </mxCell>
        <mxCell id="EOUOIk4LcYDYwFllFdzi-10" style="edgeStyle=orthogonalEdgeStyle;rounded=0;orthogonalLoop=1;jettySize=auto;html=1;" edge="1" parent="EOUOIk4LcYDYwFllFdzi-1" source="EOUOIk4LcYDYwFllFdzi-15" target="EOUOIk4LcYDYwFllFdzi-16">
          <mxGeometry relative="1" as="geometry" />
        </mxCell>
        <mxCell id="EOUOIk4LcYDYwFllFdzi-11" value="Invoke Agent&amp;nbsp;" style="edgeLabel;html=1;align=center;verticalAlign=middle;resizable=0;points=[];" vertex="1" connectable="0" parent="EOUOIk4LcYDYwFllFdzi-10">
          <mxGeometry x="0.0357" y="4" relative="1" as="geometry">
            <mxPoint x="4" y="-5" as="offset" />
          </mxGeometry>
        </mxCell>
        <mxCell id="tsI9sqQLdNqBEDmvCEG3-0" style="edgeStyle=orthogonalEdgeStyle;rounded=0;orthogonalLoop=1;jettySize=auto;html=1;" edge="1" parent="EOUOIk4LcYDYwFllFdzi-1" source="EOUOIk4LcYDYwFllFdzi-15" target="EOUOIk4LcYDYwFllFdzi-6">
          <mxGeometry relative="1" as="geometry" />
        </mxCell>
        <mxCell id="tsI9sqQLdNqBEDmvCEG3-1" value="&lt;div style=&quot;font-family: &amp;quot;FiraCode Nerd Font&amp;quot;, monospace, Menlo, Monaco, &amp;quot;Courier New&amp;quot;, monospace; font-size: 12px; line-height: 18px; white-space-collapse: preserve;&quot;&gt;get media&lt;/div&gt;" style="edgeLabel;html=1;align=center;verticalAlign=middle;resizable=0;points=[];" vertex="1" connectable="0" parent="tsI9sqQLdNqBEDmvCEG3-0">
          <mxGeometry x="0.1304" y="-2" relative="1" as="geometry">
            <mxPoint x="23" y="-10" as="offset" />
          </mxGeometry>
        </mxCell>
        <mxCell id="tsI9sqQLdNqBEDmvCEG3-7" style="edgeStyle=orthogonalEdgeStyle;rounded=0;orthogonalLoop=1;jettySize=auto;html=1;" edge="1" parent="EOUOIk4LcYDYwFllFdzi-1" source="EOUOIk4LcYDYwFllFdzi-15" target="tsI9sqQLdNqBEDmvCEG3-5">
          <mxGeometry relative="1" as="geometry">
            <Array as="points">
              <mxPoint x="966" y="-131" />
              <mxPoint x="966" y="-131" />
            </Array>
          </mxGeometry>
        </mxCell>
        <mxCell id="tsI9sqQLdNqBEDmvCEG3-8" value="chunks" style="edgeLabel;html=1;align=center;verticalAlign=middle;resizable=0;points=[];" vertex="1" connectable="0" parent="tsI9sqQLdNqBEDmvCEG3-7">
          <mxGeometry x="-0.0566" y="-2" relative="1" as="geometry">
            <mxPoint as="offset" />
          </mxGeometry>
        </mxCell>
        <mxCell id="tsI9sqQLdNqBEDmvCEG3-11" style="rounded=0;orthogonalLoop=1;jettySize=auto;html=1;startArrow=classic;startFill=1;" edge="1" parent="EOUOIk4LcYDYwFllFdzi-1" source="EOUOIk4LcYDYwFllFdzi-15" target="tsI9sqQLdNqBEDmvCEG3-2">
          <mxGeometry relative="1" as="geometry" />
        </mxCell>
        <mxCell id="tsI9sqQLdNqBEDmvCEG3-12" value="get_object" style="edgeLabel;html=1;align=center;verticalAlign=middle;resizable=0;points=[];" vertex="1" connectable="0" parent="tsI9sqQLdNqBEDmvCEG3-11">
          <mxGeometry x="-0.1174" y="2" relative="1" as="geometry">
            <mxPoint x="14" y="11" as="offset" />
          </mxGeometry>
        </mxCell>
        <mxCell id="EOUOIk4LcYDYwFllFdzi-15" value="AWS Lambda&lt;div&gt;Business Logic&lt;/div&gt;" style="sketch=0;points=[[0,0,0],[0.25,0,0],[0.5,0,0],[0.75,0,0],[1,0,0],[0,1,0],[0.25,1,0],[0.5,1,0],[0.75,1,0],[1,1,0],[0,0.25,0],[0,0.5,0],[0,0.75,0],[1,0.25,0],[1,0.5,0],[1,0.75,0]];outlineConnect=0;fontColor=#232F3E;fillColor=#ED7100;strokeColor=#ffffff;dashed=0;verticalLabelPosition=top;verticalAlign=bottom;align=center;html=1;fontSize=12;fontStyle=0;aspect=fixed;shape=mxgraph.aws4.resourceIcon;resIcon=mxgraph.aws4.lambda;labelPosition=center;spacingLeft=-31;" vertex="1" parent="EOUOIk4LcYDYwFllFdzi-1">
          <mxGeometry x="950" y="-260" width="78" height="78" as="geometry" />
        </mxCell>
        <mxCell id="EOUOIk4LcYDYwFllFdzi-16" value="&lt;div&gt;&lt;span style=&quot;background-color: initial;&quot;&gt;Amazon Bedrock&lt;/span&gt;&lt;br&gt;&lt;/div&gt;&lt;div&gt;Agent&lt;/div&gt;&lt;div&gt;(Optional Existing)&lt;/div&gt;" style="sketch=0;points=[[0,0,0],[0.25,0,0],[0.5,0,0],[0.75,0,0],[1,0,0],[0,1,0],[0.25,1,0],[0.5,1,0],[0.75,1,0],[1,1,0],[0,0.25,0],[0,0.5,0],[0,0.75,0],[1,0.25,0],[1,0.5,0],[1,0.75,0]];outlineConnect=0;fontColor=#232F3E;fillColor=#01A88D;strokeColor=#ffffff;dashed=0;verticalLabelPosition=bottom;verticalAlign=top;align=center;html=1;fontSize=12;fontStyle=0;aspect=fixed;shape=mxgraph.aws4.resourceIcon;resIcon=mxgraph.aws4.bedrock;" vertex="1" parent="EOUOIk4LcYDYwFllFdzi-1">
          <mxGeometry x="1140" y="-260" width="78" height="78" as="geometry" />
        </mxCell>
        <mxCell id="EOUOIk4LcYDYwFllFdzi-27" value="1" style="ellipse;whiteSpace=wrap;html=1;aspect=fixed;rotation=0;gradientColor=#223548;strokeColor=none;gradientDirection=east;fillColor=#5b738b;rounded=0;pointerEvents=0;fontFamily=Helvetica;fontSize=16;fontColor=#FFFFFF;spacingTop=4;spacingBottom=4;spacingLeft=4;spacingRight=4;points=[];fontStyle=1" vertex="1" parent="EOUOIk4LcYDYwFllFdzi-1">
          <mxGeometry x="846" y="-278" width="30" height="30" as="geometry" />
        </mxCell>
        <mxCell id="EOUOIk4LcYDYwFllFdzi-31" value="2" style="ellipse;whiteSpace=wrap;html=1;aspect=fixed;rotation=0;gradientColor=#223548;strokeColor=none;gradientDirection=east;fillColor=#5b738b;rounded=0;pointerEvents=0;fontFamily=Helvetica;fontSize=16;fontColor=#FFFFFF;spacingTop=4;spacingBottom=4;spacingLeft=4;spacingRight=4;points=[];fontStyle=1" vertex="1" parent="EOUOIk4LcYDYwFllFdzi-1">
          <mxGeometry x="974" y="-128" width="30" height="30" as="geometry" />
        </mxCell>
        <mxCell id="EOUOIk4LcYDYwFllFdzi-25" value="" style="shape=image;verticalLabelPosition=bottom;labelBackgroundColor=default;verticalAlign=top;aspect=fixed;imageAspect=0;image=data:image/png,iVBORw0KGgoAAAANSUhEUgAAAPAAAADsCAYAAABKQStyAAAKqGlDQ1BJQ0MgUHJvZmlsZQAASImVlwdUU+kSgP970xstgICU0Jv0FkBK6KH3JiohCSGUGAJBil3EFVwLKiKgruhSFVwLIGvFgoVFsYB9gywC6ioWsKDyLnAIu/vOe++8OWcyX+bOP//8c+5/zlwAKCosoTAdlgMgQ5AtCvf1oMXGxdNww4AElAAZ6ABjFjtLyAgNDQSIzNq/y3gvgKbsHbOpXP/+/L+KPIebxQYACkU4iZPFzkD4BKLv2EJRNgCoOsSvuzxbOMVdCCuKkAIRlkwxb4Y/THHSNKPx0zGR4Z4IqwOAJ7NYIh4AZCPET8th85A8ZD+ELQUcvgDhXIRdMzKWcRBuQ9gIiREiPJWfnvSXPLy/5UyS5mSxeFKeOcu04L34WcJ0Vt7/2Y7/LRnp4tk9DBElp4j8whErg/Tsj7RlAVIWJAWHzDKfMx0/zSliv6hZZmd5xs9yVnoEc5Y5LK8AaZ704MBZTub7SGP42czIWeZmeUfMsmhZuHTfZJEnY5ZZorkaxGlRUn8KlynNn58SGTPLOfzoYGltaREBczGeUr9IHC49C1fg6zG3r4+0DxlZfzk7nyldm50S6SftA2uufq6AMZczK1ZaG4fr5T0XEyWNF2Z7SPcSpodK47npvlJ/Vk6EdG028nLOrQ2V9jCV5R86yyAU2AJLsByYAWvEgmxubvbUITyXCfNEfF5KNo2B3DQujSlgmy+gWVta2wIwdW9nXov396fvI6SMn/NtkACwUGVycnJ8zuf/BoBj4wDIVcz5DHDI/7cAdFSxxaKcGR966gcDiEAWKAJVoAl0gdF0ZfbAGbgDb+APQkAkiANLABukgAwgQipfAdaCIlACtoFdoALsBwdBHTgCjoFWcBpcAFfADXAL3AOPgAQMgpdgFIyDCQiCcBAFokKqkBakD5lC1hAdcoW8oUAoHIqDEiEeJIDE0ApoPVQClUIV0AGoHvoFOgVdgK5BPdADqB8agd5BX2AUTIYVYQ3YALaA6TADDoAj4cUwD86E8+FCeAtcDlfDh+EW+AJ8A74HS+CX8BgKoEgoZZQ2ygxFR3miQlDxqGSUCLUKVYwqQ1WjmlDtqE7UHZQE9Qr1GY1FU9E0tBnaGe2HjkKz0ZnoVejN6Ap0HboFfQl9B92PHkV/x1Aw6hhTjBOGiYnF8DDLMUWYMkwN5iTmMuYeZhAzjsVilbGGWAesHzYOm4otwG7G7sU2Y89je7AD2DEcDqeKM8W54EJwLFw2rgi3B3cYdw53GzeI+4Qn4bXw1ngffDxegF+HL8M34M/ib+OH8BMEOYI+wYkQQuAQ8ghbCYcI7YSbhEHCBFGeaEh0IUYSU4lrieXEJuJl4mPiexKJpENyJIWR+KQ1pHLSUdJVUj/pM1mBbEL2JCeQxeQt5FryefID8nsKhWJAcafEU7IpWyj1lIuUp5RPMlQZcxmmDEdmtUylTIvMbZnXsgRZfVmG7BLZfNky2eOyN2VfyRHkDOQ85Vhyq+Qq5U7J9cmNyVPlreRD5DPkN8s3yF+TH1bAKRgoeCtwFAoVDipcVBigoqi6VE8qm7qeeoh6mTqoiFU0VGQqpiqWKB5R7FYcVVJQslWKVspVqlQ6oyRRRikbKDOV05W3Kh9T7lX+Mk9jHmMed96meU3zbs/7qDJfxV2Fq1Ks0qxyT+WLKk3VWzVNdbtqq+oTNbSaiVqY2nK1fWqX1V7NV5zvPJ89v3j+sfkP1WF1E/Vw9QL1g+pd6mMamhq+GkKNPRoXNV5pKmu6a6Zq7tQ8qzmiRdVy1eJr7dQ6p/WCpkRj0NJp5bRLtFFtdW0/bbH2Ae1u7QkdQ50onXU6zTpPdIm6dN1k3Z26Hbqjelp6QXor9Br1HuoT9On6Kfq79Tv1PxoYGsQYbDRoNRg2VDFkGuYbNho+NqIYuRllGlUb3TXGGtON04z3Gt8ygU3sTFJMKk1umsKm9qZ8072mPQswCxwXCBZUL+gzI5sxzHLMGs36zZXNA83Xmbeav7bQs4i32G7RafHd0s4y3fKQ5SMrBSt/q3VW7VbvrE2s2daV1ndtKDY+Nqtt2mze2pracm332d63o9oF2W2067D7Zu9gL7Jvsh9x0HNIdKhy6KMr0kPpm+lXHTGOHo6rHU87fnayd8p2Oub0xtnMOc25wXl4oeFC7sJDCwdcdFxYLgdcJK4010TXn1wlbtpuLLdqt2fuuu4c9xr3IYYxI5VxmPHaw9JD5HHS46Onk+dKz/NeKC9fr2Kvbm8F7yjvCu+nPjo+PJ9Gn1FfO98C3/N+GL8Av+1+fUwNJptZzxz1d/Bf6X8pgBwQEVAR8CzQJFAU2B4EB/kH7Qh6HKwfLAhuDQEhzJAdIU9CDUMzQ38Nw4aFhlWGPQ+3Cl8R3hlBjVga0RAxHukRuTXyUZRRlDiqI1o2OiG6PvpjjFdMaYwk1iJ2ZeyNOLU4flxbPC4+Or4mfmyR96JdiwYT7BKKEnoXGy7OXXxtidqS9CVnlsouZS09nohJjElsSPzKCmFVs8aSmElVSaNsT/Zu9kuOO2cnZ4Trwi3lDiW7JJcmD/NceDt4IyluKWUpr/ie/Ar+21S/1P2pH9NC0mrTJtNj0psz8BmJGacECoI0waVlmstyl/UITYVFQkmmU+auzFFRgKgmC8panNWWrYgMSF1iI/EGcX+Oa05lzqfl0cuP58rnCnK78kzyNuUN5fvk/1yALmAXdKzQXrF2Rf9KxsoDq6BVSas6VuuuLlw9uMZ3Td1a4tq0tb+ts1xXuu7D+pj17YUahWsKBzb4bmgskikSFfVtdN64/wf0D/wfujfZbNqz6Xsxp/h6iWVJWcnXzezN13+0+rH8x8ktyVu6t9pv3bcNu02wrXe72/a6UvnS/NKBHUE7WnbSdhbv/LBr6a5rZbZl+3cTd4t3S8oDy9v26O3ZtudrRUrFvUqPyuYq9apNVR/3cvbe3ue+r2m/xv6S/V9+4v90/4DvgZZqg+qyg9iDOQefH4o+1Pkz/ef6GrWakppvtYJaSV143aV6h/r6BvWGrY1wo7hx5HDC4VtHvI60NZk1HWhWbi45Co6Kj774JfGX3mMBxzqO0483ndA/UXWSerK4BWrJaxltTWmVtMW19ZzyP9XR7tx+8lfzX2tPa5+uPKN0ZutZ4tnCs5Pn8s+NnReef3WBd2GgY2nHo4uxF+9eCrvUfTng8tUrPlcudjI6z111uXr6mtO1U9fp11tv2N9o6bLrOvmb3W8nu+27W2463Gy75XirvWdhz9nbbrcv3PG6c+Uu8+6Ne8H3enqjeu/3JfRJ7nPuDz9If/D2Yc7DiUdrHmMeFz+Re1L2VP1p9e/GvzdL7CVn+r36u55FPHs0wB54+UfWH18HC59TnpcNaQ3VD1sPnx7xGbn1YtGLwZfClxOviv6U/7PqtdHrE2/c33SNxo4OvhW9nXy3+b3q+9oPth86xkLHno5njE98LP6k+qnuM/1z55eYL0MTy7/ivpZ/M/7W/j3g++PJjMlJIUvEmh4FUIjCyckAvKsFgBIHAPUWAMRFM3P1tEAz3wLTBP4Tz8ze02IPwFF3AEIQnRrfGtcAoH8eAFlEQxFfpDuAbWykOjsDT8/rU2LZhHw2XJii/jvRBeAfMjPL/6Xuf1ogzfo3+y8hVwwJRM3dvAAAAIplWElmTU0AKgAAAAgABAEaAAUAAAABAAAAPgEbAAUAAAABAAAARgEoAAMAAAABAAIAAIdpAAQAAAABAAAATgAAAAAAAACQAAAAAQAAAJAAAAABAAOShgAHAAAAEgAAAHigAgAEAAAAAQAAAPCgAwAEAAAAAQAAAOwAAAAAQVNDSUkAAABTY3JlZW5zaG909+fu5AAAAAlwSFlzAAAWJQAAFiUBSVIk8AAAAdZpVFh0WE1MOmNvbS5hZG9iZS54bXAAAAAAADx4OnhtcG1ldGEgeG1sbnM6eD0iYWRvYmU6bnM6bWV0YS8iIHg6eG1wdGs9IlhNUCBDb3JlIDYuMC4wIj4KICAgPHJkZjpSREYgeG1sbnM6cmRmPSJodHRwOi8vd3d3LnczLm9yZy8xOTk5LzAyLzIyLXJkZi1zeW50YXgtbnMjIj4KICAgICAgPHJkZjpEZXNjcmlwdGlvbiByZGY6YWJvdXQ9IiIKICAgICAgICAgICAgeG1sbnM6ZXhpZj0iaHR0cDovL25zLmFkb2JlLmNvbS9leGlmLzEuMC8iPgogICAgICAgICA8ZXhpZjpQaXhlbFlEaW1lbnNpb24+MjM2PC9leGlmOlBpeGVsWURpbWVuc2lvbj4KICAgICAgICAgPGV4aWY6UGl4ZWxYRGltZW5zaW9uPjI0MDwvZXhpZjpQaXhlbFhEaW1lbnNpb24+CiAgICAgICAgIDxleGlmOlVzZXJDb21tZW50PlNjcmVlbnNob3Q8L2V4aWY6VXNlckNvbW1lbnQ+CiAgICAgIDwvcmRmOkRlc2NyaXB0aW9uPgogICA8L3JkZjpSREY+CjwveDp4bXBtZXRhPgpmfgSmAAAAHGlET1QAAAACAAAAAAAAAHYAAAAoAAAAdgAAAHYAAB042si13AAAHQRJREFUeAHsXYdXG3fWfepdomMwYMAGlxTH3v7tbnaTs2fP9z/vOd/Zze6eFMeJ48QVTDO4YDCg3vnufSM5grhgjCwGvbGFCkIzer+58/p9nlwutyu2mQRMAq6UgMcA7Mp1s4M2CagEDMB2IpgEXCyBPQCuF4pS2dqWaqEgUodlvWvWtYvX1g79JEjA4xFvJCLBvl7xRcO/+EZ7AFx69ER2vr0ppbU12a1URGr1X/yBvWASMAm8JwkAvB6vV4Jjo5L87VWJjI38Ysd7AJxbWJKtf3whhbl52S3kpV6p/uIP7AWTgEng/UjA4/OKJxCUyMw56fvfzyU2M/2LHb8cwHfvSnV7W3ZLMKVtMwmYBDoiAU8gJL54XCIXLrwdgPO370h1c0N2i/mOHLjt1CRgEhDxhMLiT/VI5OJFA7CdECYBt0nAAOy2FbPjNQm0SMAA3CIMe2gScJsEDMBuWzE7XpNAiwQMwC3CsIcmAbdJwADsthWz4zUJtEjAANwiDHtoEnCbBAzAblsxO16TQIsEDMAtwrCHJgG3ScAA7LYVs+M1CbRIwADcIgx7aBJwmwQMwG5bMTtek0CLBAzALcKwhyYBt0nAAOy2FbPjNQm0SMAA3CIMe2gScJsEDMBuWzE7XpNAiwQMwC3CsIcmAbdJwADsthWz4zUJtEjAANwiDHtoEnCbBAzAblsxO16TQIsEDMAtwrCHJgG3ScAA7LYVs+M1CbRIwADcIgx7aBJwmwQMwG5bMTtek0CLBAzALcKwhyYBt0nAAOy2FbPjNQm0SMAA3CIMe2gScJsEDMBuWzE7XpNAiwQMwC3CsIcmAbdJwADsthWz4zUJtEjAANwiDHtoEnCbBE4egD0erIFHOLlcvJhe7vPh3ieexut44LY16u7j3d0V2a3jf12kVnPu9TleF/6O9927nSwAE5weB7SeQFC8kYj4wmEMQQ6JNxAAdh1Qd+9yu/CbA7T1WlV2S2WpFQtSL5Vkt4xbFa/hdwR3N28nA8AEbkPbegIAazgi/kRcJ5f7knHxRaPiCwZFVBsDxLa5QAINzVqrS71clnqhKLVsVqqZrNQyaanl81IHoHerFQAZIO5SILsfwACvB+AVf6AB3IQEBgYkODQoweEhCfT2iD9KTRxSkFND2+YGCTgAJjgJ0lquIJV0Riqbz6X8dF3KG5tS3d7C61lHI6s27j5z2t0AVvDCv4V57I3FJdDXp6ANj45KaGRYgoN9EkglxQcT2uP3O1qa2lq37ltsN8D252N01mmX/m4VZjRM52ouL5Xn21J68kyKj59IGbfKxjOp7GzLbrEIJUyTurvW1b0AJnj5j+CNxqFxhyRydloiU2ckOj4qwYE+8UXC4g0GcE40TgYGPbjpXXcttPPF3fQTa6bLhjXmPYBJn7eWLwKwaSk+WZfC4kMpLC9LcWVFtfFupez4xW76mu94rC4GMINVXgVvoH9AImcmJP7hJYlNT0hoeFD88RhOAKw8fSgsbL3sBD3qjGZ22VX6Hc+Rjvy5g12A1+/Ti7AXLhIfS31XfeLSxpYUHq5K/sGS5O7NSenRmlTTO2pOd+SAO7RT1wKY6SFGmgP9/RKenpb4zIwkPpiV8OgpNZmFaSSYXtUSrthpBD7yiGAWS1LHawpgA3GHTrkD7Bbo1bQfLsDeUBAXYwQkYwhERhCgBJC5VWEyV7a2pbCyKtk79yU/vyjF1YcIcO101QXavQBGVNkXS0gI/m78A2jeCzMSPzspQQStmDOsFfJSfr6FYMeWlDa3cHXOOikIpB/UHDvAeWRv6YwEqH3VbMYPpgCZUQj0pCQEt4j3/kQMSQef1BCdLq0/k+z9BYD4nuRu3UaQ61kjvdQdLpJrAeyNxCQAvzc6NSmJTz6SGMAbRuTZi2hzHTlDBjkyt3FlXlyS0uN1qaXTWFiY0TShbTv2EnBMaBymzw8tHEZAckCiM2clOjkhkbERBbIX2YdKNifFtceSvnVPtr/+RsqrK7JbYWoJllYXbK4FsC+RkvAZBKzOz0jq4w/hA4/BzILfK3WYVjuSg2+0fe07KTxYwFV5Q+rIG+6q2dwdV+YTc+42CnOYYQhPn5XY7DmJnz8nkdMAMTRzHUAtP9uUNMzorf98KYWFBaw1UksAcTdsrgWwv7dforMwmy9dlORHlyQ8MqRlk1Uk+wurjyV7d07S129IaW0VGpkJf16RAV7zfd11XtOWBohZVRfoQ7xjclKStLjOTUkEa+6Fhi7DF87OPZCtL69JYX4eqabnWuThri96uKN1L4D7hyTx4QcSB3iTH1zQtBEux1LC1Tg7tyjZW3cl++OPmid0zGYD7+FOkWPwV/SFaUoDxOHT45L41SeSuHQe7tOE+FEqW0aBR25hSXa++U4j0uWnT1QLH4Mjb/shuBbAgcFh+L6XJUEAYzGDfT1SQ7K/sAbf9yeA9/ZdRCbnpbq16QjRNG/bT6a27oANKSjGCY2MSuLqFaz7RUnAJ2a6kOWVucVl2YHFpSklWF21bKath3NcPty1AA4ODUv8yhVJXv4QV+NZCaZSUkXkubC8Jjs3fpIcopKFpUUEr7aPi6ztON5FAtTCMKUDg0MSv/wxUoYXJD4LACcTUkUgi+mkNNadF+3S2poBuEXWnlwu9yLyQ1Nl6x9fSP72HakiOLRbzLe89f09VABfvSqpBoBZMslSu/zSQwD4RwD4vhSXl5y84Ps7LNtTOyUAEPv7BpAyPC+xmXOOCY1AFnP8xcdP1eoqLC2jVpomdK6dR3JsPtvFGviUxGFKpT6BBr54HjXPzpU4t7QqO9/flPxdAHhl2QB8bE61ozkQzT6Mo9pu/DQClyjaQblsrVjWwFVheUUqT55KZduCWK3SPqYa2ADcukjd8pg5YX+qR3xwmXyJBCqz/Jrfr6NGuoqmBmYhqH3ZwdQNm2ngbljlE/QdGY32oArPyw4zlNKylZRZBm3wZzOD3liwY4UczWU3DdyUhN13XgIMZiEiLV4nqKU1l8gw8J+wyg7NDmxB7JZ8v2ng5imJEwMVA04RPU4OPTEarzXfYvfdJAHWDeD7Mv3IC0TrReEYpSQNwDwnCVSW7MEcc7qc0PFCU40UPHxdsc0ftp14CTTAqWW3ZANh/bzS9qAJhtQ9NNeJ7GMCYgMwAYrWQ0+DkscXQdsagyMNGh4SBqjJpig+8aevfUHVtoAoSfPQ7VQjFxdoe2q5nAbH6iDUI5D3aOQOSq27AQxQqsYleEnJ09ug5DkNRo+hAXS8JJVPS0FMbWzbiZeABsTI/FEAhQ8KRCpoRS2hs630BPQ96+tKGkB6HyHAj4Em7l4Aq+ZFeR7TEskkiPAGJTyG3OLYKDpdTkkIAPYjt+xH/a2jhUEQYFr4ZAOYZjFu7HBSDq5MDj3l4OBCkQhbFgsrD6UEQr3q1pbWWmvbYoej3V0LYNbVeoIhp8NlAj2mU5PocJkEHQ+YLFFf6yX7A81naF5lvTTwnmzwNr/dCxDD34WWJWkAzWiyYOZX1sDDtYwW1UUQCTxFuSZ6zPH7Tm7dCWCA0YsuFn+qV7VuFKV58XMgxJscB6NHSgNXSCQipwgziVdj3JiewOW5k2tl+34fEqBbxWAmubjgWjmBTLi9KNMlkV5uccUp2QSQywBxnbS2HWTD7D4ANxbIl+xxCAHQ0cJmiAjMZ9K1sECA4CV/VnkbBOJYOBKIKyker84G4vcBow7tA+AlcMFkSnKIAC7m6kKx2ov8amiW0Zrrew8kf38ehHoPlCyCWpjR6k5sXQdgNYlJhoduptjFC1pHHZuZhs/br83hdZhNbE+j71N8Ss7hNKYCgBCADA8sEjAAd+I8bf8+d1kDgN0ArD4Q6fnQJBEa7JdgP3i4CGRYbNzKOB/yS9DC9x+Ag+sOfGN0PoFIr1OmdPcBWMnwkhIaG5PElY+1JS02cVqvuAQvCfAKy+AbfrgGlsPHqK/F4gC8DsdSw4Q2S1pP5hP3g+UACG5KACDGOB7S+ERwbpDCJ3RqSEHMMS/FZxuSX1iW9A8/gcJn0TGlO9T91HUA9iLPSx7p8NSUpK5+ooGrMLQva2wrpONBoCLz4x0EKxCogM/DeTwvfBw1oU/caWtfqFUCdLFQF0BXyhtPKt948urH4BtHgBOkEZyvVUVO2DlPbiuBQGFpqWN9510HYF8cVLSnx8BweA7cSh9K9My4jl+hhi0h0pidW5A0qFmKWJQqWB0052fAbT3FT/5jamJW4gHEoVNgAPkEltoFEOmhhTGAYXk8V+hekfWUzC859sY/3+iIXLoPwGhFi0xOoyl8VmlZIsj7cvgZUwXFtUeSxqLsfH1NSqsP1a/pVHCiI2eD7fRnCTQq9AL9gxK7dAnkiRckdv6shOEXMwVJzvHsvXlYa7clc+MHqTx7+vPfvsdHXQdgf0+fsllqAOuD82gKH9bRo5UdEKOBzSELPq309etSRuXNC9P5PS6I7eqYSEAjWmAA6emVyPQULvgXJPnxRRT54IIPEoEyeMZzIJRP37wl6W+/VRaQThx59wEYlCya9wUdbeLSjJLBMzJdJpc0qEkzYLPMfH+jY1fUTpwEts9XS6DJABKFxZa6Ajpb1AowxUTigMz8ArTvLVhsIJR/+vjVH9LG33QlgGMAL/mkExdnkCoY0N7SCkyiDEd0/HRHsjdvgo52vY1it492iwR8CGQxZkKXK3X1Mni4EDNBiol10lkAOE0Af0UAP+rIV+o+AKtPAwBfbAK4X2ucyyADz9xb0Nxe5uaPIOwzAHfkjDxmO30R9MQQgRT4qDn9MoBuNUaiNeAJJkzVwE8MwG+1dMGhw3Fi+Q3AbyXnbn+zAbhNZ4ABuE2C1eDNaz67y1JqBuDXnAvv8isD8LtIb9/fviAb4QOWFDZeaL7eLEBT8LbUg3dBRZoBeN+5clRPDcBHJEkFKX6wA0cphRpUQiSOawKZwEXHDQsYXoxo1TGteP2Eg9gAfETn2f6PMQDvl8ghnwOk2u+MyiMtHwxF0AsddqhbkV7jxnZKFuvXUexSL+JWLqK/Dq2WBPEJN6kNwIc8r970ZwbgN0noFb9vVBg5/Mqo92XNbzgivlgUPGDgAyMXGG5ekB2w7lc3AJglpRxhUsOc5XrznmAuFR0uZiV+I6BxO0GbAbhNi2kAPpxglYkEWtaPmvBAP9rlkAcPnhpG21yv+OIAMLUvSgW9BC87c7ixPxr9sOzWohaugmqGefPy+jMM195Aym0TeVG0XaJvmmRwJ2kzALdpNQ3AbyFYNZNBDQSKIJL3+Xt7MU95AKM6h3E7peWkIQCYGpjN7N4mLzYCWs5GXxdcUeiHrpdAMQMtXN4EVxS6tYqYRVTmDUDWwdr5DMxttF92kKXiLSTzxrcagN8oosO9wQB8QLlpIIoUQphwD+AGTp1CM8eEhEdHnGb1vhQ6bEDeR7MZFDJqNjcDW3t24QSsGMiqoz+a5nQFxAcVlKCysL/46LEUSTND9kYUxexSGzPC5XIf2QC85yQ4uicG4IPJ0jGZw0qZGzp9Wvtbo9NntEGdwHVMZvq6QC15wMh5DDNY6VWVB4yWtBPo0s9Cr6xjWgOeMKtroB4ikKmN2eReXMYNZAjVLUwIpH9MqhkXg9gAfLDz7K3fZQA+gMigfUlgEMRQ7NA46nnRAx09M9agzE3CXA4qcHdr0KjgQSZ5OWt8OWeZpjIByk15osJBaOkYfGf4yQh4+UAxQ9ZOTjCow2SuopurBJ84D/Dm5+YB4lU0hKyD9A2TAl2siQ3Aegoc/Q8D8Gtk2pIaCvT1S+TsWTCPTEv07JSESQ2TiGmgiuZwDZHkSjoDUziNG8Zzbu8oM8kuU0YNAHtB9OZBcCvAwBfI7pUjCjxRLzS4l6RvoGAlUwU18YMl3BakMA/SNzS6q0bHvtyoiQ3ArznP3uVXBuBXSI/g5T+O4ATgwmPjkgT3V/QcwDs8qJ00LNogtxOBW954rnSp1J7VZ5t4DdFk+Lf8PQHOje2W1NYcNxMACb5/oB9aHET4I0OOH52CNgcRHOcGMULNz8rOLUr6+x+giR/i8xDYokZnisll5rQB+BXn2bu+bAB+hQQbeV62wQWHR0AdNC3K6QTqIGpe+q8sxmD/c/HREyngVlp9pFHkGgdkw3zWGbtMBzVzuvxMpJY4j9fPXHFPD8xygBjN7ZxioQGx3h7l2sYfqRmeX3ooO9d/kDy0cPnpE4cEnRcEreB6xbEfw5cNwG1aFAPwSwTLiHOjHDJI2lz2PV8Eaf3MlPY9c5p9FQUZ1Lpk3cyBGrWgvuozUKOC/wuDuzSPu79MshmV5mfjM1jkwRM7gBxyZAK+9azDFxWEZvaHQ1q5VVrfUOrV7N37krtzV/1hvTC4zJQ2AL/kPDuKlwzA+6RI8NJ0pr+KlFF44oz0/O63DusI/V5oTpZElkGbmwd1UI5+Kjidyk9AnZvBiBAA+0AmLk10amRUcPnRFxsE6Vt0Fj42/Ovo1Bk1qb0BMDciV1x89FSyd+Zk+5vrUlxZRhEIAlqYdkEt7RZT2gC87zw7qqcG4H2SbAGWL5FU3q++z/4sCXAaBwBeAqaCCDPn+6R/uAXTFuB99Ein7b0Y0nVQ/5T7gl/Mkaz+ZAogHpHIzFlJNVk+MVuKG0GcgZZ//s//YJLBnMOxzdSSi3xhA/C+8+yonhqA90lSfV+fmrbBoSGJgkVx4C9/lBi0IsFWA/F4gRrx/qKyKJI2t7KNKXsouDiUNiSI+Y8zpgDi8OQkfO1PlCg/MjoM3ihq/DpmCS3L5r/+C+rVu/CFybMNba9mtDtqpg3A+86zo3pqAN4rSdWIyMsGevslDBZFcn71/PqyRFBxxf5eThNIg3Ezdwc+6dwcwITBXGrSYmTMYTeCmD5xGGT5w2BIAe1M7NJ5SZLtE+NZeWFgkGzr2xvgT8YYkkVcNJ5vNuh6nQj3YXf9vv7OANwmSRuA9wpWo8TBMCLPANIH4PsCiBjACg/0AUe7ajo//+pbJSEvIXBVhfZ1Kq7eEUjoG+a+Sb/KcTXcd9/vfy0xFIywn5hk+Znb9/RGEvQKItJuanowAO89z47smQF4ryjpj7LeOcS8L9gT49CEsSkQsKFckj5uFkGrzX/+VycJkHGzDpP6SPp5AVK0LmnFF4tGGPke/NunOq6VBSDKn4wSSwazMjduYt7UKvaNcTU4JjdsBuA2rZIBeK9gtdMIpY7hiUlEn3/tjEwdPaW5WWq8DEZibvzfF4g834P23dY65UP5vnt36zyjKa2ppaROfBz8++dK2cviDk52LGC6fQYA3rmGkTWola7l2LHU2cHYL/saL3vNAPwyqRzBawbgvUIkgH1oFQxPTknvH3/vcF6jWsrRghkdA/IcwSTWKdfSBHBp7we84zNWfvliCRSOzMjA3/6q+/fH49q5VETwKnt3XkfW5OEHd3Ic59t+TQPw20rsgO83AO8VlANglE4igNX35/+RBIjIg/B/GcAqo8Y5AwBt/edLrYxyAHTEANYLSELrrvs//xQAxv5RYllHX3BpHX4wcs47X36DjqXFBoCPdv97pXF0zwzARyfLPZ9kAN4jDm3WpwYMT087AMbUCQ6nVgBjWHnm7pwDYDQZtAvA3mgcNddnpe+zTyV5iQBOAcB1lGk6AN4GgAsLC07uGVVfbtgMwG1aJQPwXsG+0MBTMKH/9AdoYIyN4dxjDwJJ6DDK3AOA//0lOoTm2wIg1kkrgFFWOQANHKcGRgCN1V8sq6QFsPPVNdPAe5ftnZ/ZaBUU5TPd4fbRKk4QK46GfQSx/sASylltHWTPLiuwMvfnWyqithFEggY8aOXVm04zBrEAYGqr6OysDPwdPjBMeLJ8sK+YtDuZO/MoqfzWCWJldiyI9SaZHvD3BuCTAmCmkdC8Hx6fkNRvfoU00qxEJ04rw2QdrBkc3Lb5L5Q03r2Hvl+wZRTyDoDfFcQALy+AXhLloUuJYzgH/vYXrchiFLqG7qb8yqqmkXau35DSwxUnCm1ppANC9PVvMwCfGABzojzywKOnJXH5I6eQAz3AgZ4UCjZqTknjv79qlDSyvQ+pnKMoadxXwsk8cD9LOEHb4wX9Ds13DgHLYnB65uZPUnq0phePXdDQumEzH7hNq2Q+8F7BOjzPQbT4oY3w/CwAjIHUH12EHzygljJ7f7dZ0ojWPuZilXiO7YMKYnQHHWaj6cymhkBIAn19Ej4zoVMfe357RaKnR/QTi2juT3OKPaqx8vfuS2UdJZzcr0voZw3AhzkxDvA3BuC9QvI0SxrBPBmCGU1N2Pe7qxIZG1VSOrJHZh8sqilLEKsmxJBqFlQcirOKpjObGRr559DoqNZfxxD9ToBEIIjjYASafcdb33ynY1vJzqElnDCflXZ271c4ls8MwG1aFgPwPsE2TFnyPgf6ByR+4bz0ffp79OlOKh0OCzdKSOfk5pckDVO2gC6h6uYG/NGsM/eIvvBB/eGG38uLhhfVX8q7NXkG1D2YYA+znVqfEx8YwMotLMnzL75CIQd8741nILnDReMoTPd9X79dTw3AbZKsAXifYBsaUbmrWBF1Fvngz/6k6SQ23nPSQhVUOsW1J5K5ha4kMkcurzj0r4xIw08+kCam2Yx/QuIARJ4DvX3axBBF+ij58SWJQuN70WIoACk5t7Io4GA7IdNX9LudCrC3uFjs+5rv+6kBuE0SNwC/RLAEl/qkQfBVjUtKa6LRkQR/lDlZTZchqJRbXHGYIwHi0mMwcuwgrVMEFxZApw0OL/no5kvOBEOAFxFvP4gDONnBYb2cROBqUoJ9vfpWgpfmcwbti+lrYORYfeiwfriMJ9oA3Fz5I743AL9CoMqJ5dO+4Ai0MNM6ycuXQD43ojzOdVDaVME8WXj8FGWViyisWPo5qPWCiJ2fTS3Z2AfdXWpd/scUQ1L2MGgVGh+XyNQkOo8m0Xd8Svxkp0RNtCBAlcekhp3vflI+rMLioqauHL6td2xfbBzS+7ozALdJ0gbgVwiWWhj+MOccNTmhU7+54mhHcDk36V/L1JCrj6WwsobyxiUMKlsHNxZMXE4fZISYfmqTQRIXBY5cISkeP5eaN3hqEEUjZyQyjmkPMJtZ9yxIGyld7XYanFuLsv31dSmgdFPzzg0Nf2A/+xVf732/bABuk8QNwK8RrJrSABsCScERRIeRF46DGysKalmauN4AiNhBd0POqupOGiyVW2i8f67TBpleqgLcnELY7Nn1cOAZqXMAUs5XCoJfmsPQ2CzhJ080QE0yPWrYkpLmrSBoNSfZH28paZ6OWNG0kXt836Z0DcBNSRzxvQH4DQJtBJt8YMoIT03pZIYY2CPJ4czpCn4GmqBZnflGmM5AICNKzc4lgpoVVKqJsRsC3keNjqIQTmUgfWwghblKMKUJXPJHc8JDGZq3iN5ftg6SD7q4gqorcE07frX7wEsJG4DfcJ4d9tcG4ANIDiAmh7MfXUHKHIlWwyhYOiLQxKFBcDhHImoaE8T1CseGYoA3gMj0DycQCrS0bjCNWVNNje4D77MOAEcEWsELU7uKpn1S5xRA5p5HeioP85l0tco1rX3H7gQvv7sB2DkFjvynAfhgIm0WePiSPSizHEWt9JhEUObIoBNN4EAirukgD0BKn1enEpL2FZMJyaXFjS2JwgmFzDXTH8ZzfR9AzsmEShTPKQ/wpQuoey6BrlZbFmk2u4hC9mUSNQC/TCpH8JoB+IBCpClN4FF7oluI0eMgmDoI5giI58IAcoi+LAoyxI/3EZxa1LHv8xmBVuAC1NDYVQwyK8FfJnl7YfmhlNYwngVlkxXMCq7lMF8JWtzt4KUEDMD7zoOjemoAPqAkATpAT0sevTCZGUFmdDoE4EaRt2UUOTQyjDxxEu9Bioia+DUbc8UcJ0qfmTOBmeslTU4JGriyuelEsjncm80Kb1Pd9Zp9dvJXJwHA/w8AAP//oe3z7QAAIK5JREFU7Z2Jcxv3dccfSQAEAfAQJeo+KeqyHF+ZdjJpm06baSaZdDr9V9vONJm4cSdO0tjOYUeHZckSRd0SKYoXboBgP9+3gKzDpgSJIBbCb2coUMRisft++913f99AoVDYsOZWmJ2zpQ8/tuKXl6y++NA2ysXWW9v6mtq913IfvG/j771to2dOWXJ81Or5ghXmbtvK5+es+NUVK9+8YetrK0+dV2LnlGXfOmO5M2f43AkbntppNjBg1UePbO3yrBUuXrK1c+e5tvmnPtez/xkYtIHEkA0Oj9hQLmfJiUlL7p6y9P69lj64z9L79tjw7l2W4L3BZMJscHDTS91Yb1ijVrP6Wt4qCw+tfO+BVW7f4/W+1fh/bXkJmeetUS3ZRn3dbKPBz+PbZ9Njx/HNodyoDR84aJmTJ2z8++9ZdvqwJUe51woFy389a6tfXLCVTz+z6v27XTn9geG0JcYnbIT7efKn/2zZE9PPncdAAPBzMonvHwZ0agM2ICAOAdzUsA2mMzbETZec3GHJXTsttXu3P7j08NLfUhNj7JO2wSE+w8PMt2dB98TfGwBzvVwCrGtWe7RklYeLgHnRqvMPrf6I10fL1lhbtfViESBXzNbXwTFg1vbscaO/xvbfAOAOLU3QwN8i2CfAO5BM2WAmy9N5HJBOAtopG967F20r0E5YcmwMrZuJgJtiX4G3uTUaaM0GWrMFNoF3cADl/MQ+gLJRrVmjXMbyKVptddVqS8sA+RHa6AFgXrDq4iOrr6xYo5i3jVrVpL056DfHbX1hjF8DgDu0OAHAzwhWIGuaywPJYcCJxp0CtHumLLVXZrJ+34UJPW5DWTTyMJoZDY2yBqcbaEiABXAbANPQsHrdEJDZpM0d4IlE9Bn+r78N6Dv5rPZdr1TQuNLKq25aV9DGVczqyoMFTOt5zOq1pjauR8dtPRyeuYy4/TcAuEMrEgD8hGBdQw7ZgEzm9Igl0K6pPXssMz1t6cP7Ae5uzGQBdwSTOhl9UMADqBv4s/JpG1WAVdcrP5Wq/21DYAbXftwU4BXo0dYDAjLHGUwmbQC/eRAfu2V6N2p1a5TKAHnFyg/mrXTzrpWuzVoFrax4RKNUdN/YTeoeAHEA8BP32Vb+GgDclKa0rrShzOARTOaJHTa8fw/APWTZ40ctjdmc3DFmQ/i4A5jBCizVSyWCMEUCUQVbJ/BXl69argAutCg+64YADJiliX3TgwGgDgBg19xp+dUETzI8LEb5TgJgCWn1Eb4DcAv1DTRydQkQE+QqXJsjoHjbKgp0ESx8yqRWkCvGWwBwhxYnABjBonkHBtG80oiYzKldRJePANzTJy1z+ICldk66nzsw2ATVej3yVxV4IuhUuT9vNQJQ0paKHK8D7A2At8F+bj7LrNam78FH9u+RFh4hoj2qiPYE37kT3xrzfArzfMdE5FcnIi0v01rR2urDJSvdumuFy18D5Fv4x2jj/Jpr/7hr4gDg6BbY8n/7HsAym/lxszZDqkOpoSNHLDMzbbmTmM74vtKS2hrVqqd9BFSPGD/AP8W8VaCptkTahwCUR4wrZbQu4P221I9AjLY3PSw47tAIGndMATI0Pt/tQTJ8bD00HMhoZkXAXRuj3cv4xIWrc1a8dt1K1+eaIF51Te3Bspia0wHAfgtt/T8BwNKIQ2jCMXzcfTYyfdRG3z5tGTRwClBJS8q0Xgc87o/evW/5q/iit24DHtI9q8sedNqQyYwPLH/Xte63gbe1fP7QaJrsmNUD8oEB6ZBMaYEZLZw+dNCyPERGDuxDQ5OeGk55oGsdv1gmdenWHct/+ZUDuXLnLg+PZf9uvrz1LbF6DQDu0HL0NYClDTFTlSZSTjdzfNqyp2Zs9NQJNO8uM4BlpGzk6ypPW6LQojh3i2DSNfdD68vkacnjRkGq1wSOfHAPnqmgYNxS+/ZhBcxY5ughG6FQRBo6gW9M+Br/u25lTPfClav8XLPi19ewBO7beiFKM3XoVnmtwwYAv5b4vvvDfQtgaUFyP4OZXDPSjOb93luWOXbY/VBpQ0WOVSlVQuuW5m5anqo0aTuZy41iwdM5XiW1FTnZ5vnIGlDueShLQItAWvrgAcuewRfnvNJ7d1uSQJdyydLEquAqXr9paxcvW2n2OukmNHFhzTX1d694d94JAO6Q3PsWwG66ptBsO21EmpcSv7G3TlIauYcIcdrNYPmzJQJUBUr9ivqZnbWayl5rVEUpddTyN1uvr7tGDmK55DxcHMjDlty5K9LEmNPZmWOAeIqodcb3qRMoUwBt7aurViSwVbx6lUDXgpvyJJVf92y29PMBwFsqzm8O1q8Als+p2tfhgwct9/ZbDo7MoQNUVo26cGpo3jKaV6mb/KWv3Of1aihq1r0Syn1NVHQzwPyNRF/zNxkGqgoBxJFJnUETT+ATH4rOc/qIF5UkclkHcY3CjtKtewS2Zm3t/EXO8xZ++YrJJ4/TFgDcodXoOwBLu/HjQat9BzzaPPr2GRs5cpCg1QQuZsLTQGU0W/7yNfczS7PX0LyLj4NUjtqt0rrfta5NIA9wPgpyJWkeyeCbZ0/MRHlpfHSZ+Uox1R6tWJG00tr5S1YCyOW7d0hnrXJkPWC2+gnzXSe8+d8DgDeXzyu/23cAVrEGKZzkrt3keU95rjd34hgpnF1eHaUKqioBq+LsDVulG0upGoHXK5+8JHIbQeEgjqLVCrQlyU+PHDtqY++edZ9YqSZVdCm9JX9Y6aUCfnqBDrfqwgMvNolLVDoA+JUhuvkH+w3AraizWttG33+HiPOMjWA6JyioUOFFFW1WotopT3Q3f/6CB4Y80kzkt5ubnzc54+H9+y2LyZ87eZzzjqwGmdoq9FCUPH/5qq396XMr377VLLekEiwGWwBwhxah3wCsvG5ykjzr9DEb/4C+1BnKJMm7qmVQEecilU75C5fQZteodrpp6ytLT/i8HVqElzlss8EiMU5k+shhD2yNvnUKEO/3h48aKCoPH7kvvPLnL7xuuvboISAuvczRO75PAHCHRNxXAJbvO0bTtiqtFHUmbTRCqaQCQp5bpeMnf/W6rf7lr1a+ft3qS9Qbk+eNzcb5qyc5uXOnpY8esbH33mnWae/2hgjVZRexHlbPXfSodOnGHAUeEDHEwA8OAO7QXdQ3AObmVwljcmqP5d75nuXQXtK+w7smifYmiNyuwUJyi1zv184kUrlzh3pmsWF013R+dtkV0BqUKb1vP9dx1nIKbB09TER9LHIB0MJ5fGFVaeX/eo4WRHxhAbjLIA4AfnYlt+j/fQNgb1ZIkjY6ZBM/+FsbPXvK0gf2evePAlfqt1U+NX+JoogrV6J8LxHeuASBHi9305T2qDRWhAJxTmmkmu0kD6JCydNfKu5Y/r9PKDy5GQWzupwXDgB+vIJb+0u/ALgVvBo5esx2/OiH3PQnXfuKu6pO83zhxk1b/SumJ2WJlbu3vXEe9HZdcz232lgSyhMP0aucPnAIV+B4FJWm7TGhHDb5aVHxrF26Yo/+93dE0WdxA9Q7jCXRRS0cAPzcSm7NH/oFwN53CxHdyIkTNvn3P/AobgoQqF+3pF7bK7O28pcvrDw3B6Dl+9JRFOPtcTDuGGkloumq0hqBMUQEASIlXCOK/ug3v3dfuL5K6adfjx5I3bmoAOAOyb1fAOw30H4KN06dsom/ed9ZEVWSqMCPGELXLn2Nz3jeyndue52zWDXivEX10rQ/Uis9+ja+8GnMaXx6kQKoH1k10kuf/pm88GUaL+5ZI7/aVV84ALhDd1PfAHh80jKqYnrrtI2/Q/SZNj2xYlQhkFvF3MxfIOhz8aLV5u9TcaVG/HjVEj+7/F6hRRFHiqCcrinHzxhtkGqBVGFHiaYLuQT5i7QcUsO9TkT9W/uTnz1wh/4fANwhwfYLgFV5lXvnHeqJ4bE+dRz/Fx5rAlsVmvFXz39JR88lKxLAqpM77eaN/tLLrKg6uevEjp3+YMqhhSfe/553LDXwd70yCzN6DQDnz12AMWQ+eih1yQ8OAH7plW1vx9Ru0ioffGDj70LsTjdOknSEzMrSDRG7n/cWurLnE5efOnCvEbun9u63cUWfqWJSs74I7NWUoIaF5S+4TgCsPl8VbvTMBog9r01gTg8muQayLNTNVFtRYI76aCyL1c/+BEUtaTGut1tR9QDgDt1VDuD33yeSKQCfcnLyOrSmpZt3IhOMTpwSRQ3P3tg9BWACt8NEbHf844+8eENTFEQcp55aFT7oQeUTKG5RefXMBIoOiX3LDjuUIxpNaizDVA0BOENThtdHE7Qq35u3VarKln77e7qUSCd1MS0WALxlS/70gdy0fPcdG6MoYPTsaRvGh1rHhyqTFy3QjaMm9qLyojLBWr4hZljPAfjwMdv5Lz/G0jgbFW/Q0KBorVcu4Suqi6fFavG0hOL9v6EsbCKiAmIUyDjR6Mzhg85yqbRRBUL41XNf2eKvPyK6fj0AeJOl7NnRKgnqgjXjSKalgiAiMFeeUWa0msVVWigfSnXB9RV4l3iyQ19urc/1xGwkTMr00Wmb+vnPAPBbTsqu6QjuKty550GsCppYtDmxKp3c5IZrvSX+atHtiEXTa6NVnEK9t6ZC1FfWXAMv/OJXMHZcjQo6vI+59entew0auEOyHtJAJ25uUaiOKTp7cL/3mSphWOMGEHnaKn2mXuBAs7hMTEVoew7A0zO2599+7kPcknQePaalofSwiK9YhWOqnodTCi7nXtoGILtT6ihFO2QWEKs0VAyb8nX1gFo596Ut/NcvIb+7EgC8ycL2rAYWibkI3UaYPjDGhMIMrIxp5v7Ij9KYD432UG1tgQhtHsaH2kNqawmGJKCi6YnphM3G+JGZk7b73//VJrhGkacrgrtBCaX8/Rp10LrZRaIecVxtstIxeyuamAiIuSYFIKV9NeVBzJjy8QXg+f/4bx7Al5vVWK9JvveK1x808CsK7kUf0ySCodFx7zPNEQjJUNEjP0qT9rRVVyB1I6eYJ1e68ukfrQrbg4IhvQPgqPQwfbylgc86MZyaApz+lWtR2kU/HuThxu+pTQQFkMUP4tPrx8TgockRxCv0cFrloTv/n2jgqwJw92q7A4A7dFeJnUL8UMkdEIsfOIA5fRSCNxgqmAOkSiUv9IftQV06UXH8Lb8Reg7AuAm7fvYTL+JI7Rino4fxJTQGaPO8r6YneI60S7WGr7y+PKDw8eUSOBke8Qt1H6l0UqmkFdyfxV9+iA98LQSxNpFxz5rQPK7dnFSLWkIgZgaQaFvEzqjJAHq/DnFaEXI35RMr93pNA2vVBrAwDtrE3/2QgeTRMHJFb2VGS1u9SZtPSMTFWdcolsWl6MH7+z/QlcSDN+SBv3OpexjAuoF5euM3afp8QgOsdzGfhx8FRjTMS76hBmoVyAnXFqEtdRM6il73RhQaltYJKpZOnsTCgPcZfuUhmvjd5JT2epM2aV/WR8PWNDmiRJeVKGfrS5DyqTzUrYztv+BgQnda5k1N/Hg6H5FaaWTVC3tAhLk/ZYjDG2hjmZw9FYVGdrIwklMQo1NCKXdhSNzK+I6yMN6oDYDqAauGhjoE9DVywTW4ohtoZKX/AoC/fbV7VwO3rsc1kepruaG9+V10psywJUji6053TqPFUMFN0lOFHFxjq/hf/r7P48V8dt+xdf1v0msTxJoxLBJ6n9sEqLsFXok2aOCY3WC9BuCYia/vTicAOGZL/g2AT0eULmJ2RItXGTy9dnnWCjQHrJ07b/XF+ZideTidbkjgGwCftPHvv+v92EniLaLDzTO2ZvWLC6QpP6Pp4m43To+h6xoqR1HTmTM2+dN/hkB/+rnzGCgUCo9zFGoiX/rwYytCwl3XvB1oT3ppe+wDqwyzGdkVPY1HPmG3yF/8khLM815D3UvXFc61MxJQ04W4uDOnBGAYRBjW5gAm2KZxrQ7gTwDwgwDgzqzAM0d1AJ9RI3kTwESsBeAaDfJ5AKz+2vwXfw0AfkZu/fpfB7C6pijZHf8AAJMNSDK83Ol/0MBrNJSsBABv3+3hjeSkZXKAePQsU/1IzSgVVV0mZ4x1IXL01T9/TirjPifVvejn9kkkfNNmEhiCkH7k2DFGpZ7yzjcnpGe2U2017zOOxWW9+kf6lh/c2+wwHXuv70xoXxDqp3NqgoAgPc0QavXYitZUvcRrAHj5k08pvbzd1QKCjq14OPDLS4DYSGJyyrm7srSs5k7PUG/PLCqGqzuDJnnqNbGifP6F81i//IG3bs/+A3DLpzk5EzVBOMsF5OLUFJehqcnDsbz8yR+tfONGRBJXq0a1x10qJNi6pQ5HeikJKC3Jj1e7pdJeaz/2HqNszsxEPcuiwKXu3O+Vi1dwub5kKNtXUBotvNTht3qnvgOwF0YwfDqNWTT+/ffMJ/xN7fR8q7p71KInrqkS/k1Fk+PVhthqGAgg3ur7L17HE3i9yWKIApqcj4IZYRaVut2yx45YaueE3ycaoK5ZVGt0TGmqYgnSgfXVp6mbtuvC+g7A3sWUJbLI4GnxEmtangZkq61tnaKPqgZtQW1aYlxJmXI+Bbe8XY8JgN0sKNiuG+K570HbNOgG8sKKCqQIepip82mrH2YCj0pjKcgRmb2KcdQfrEIWL1zZjspRaV4VAxETSYyOWWof9fUMZBs9DZng3imq+yjPxSKrLNCLTbxE/m9p9rozojSKhedEtx1/6D8Aq22NqqbUnj1EFqNccHZmOqKrocpJtDwCrYBcmV8kWAEvMf23KvPzkr7tWJW4fIdieBAFrFOGWiNPLuqeuuQht0IVUlu5eUks7YUwdSRoE00yQzi1G9BQGqsJjF462mEQA1+v4FOnm1P+oHFTlLAOY6HpAa/OqarIIuZuesZCNQPi43YrjfumG1vfAVg3gvwbD2aREsgcPw6rxwlnRUyO5XyINlX1VqepXGM71VwemdA91m+7FXcTAPb2Pka4lG/dhmvsCnRFkK1jQm4ZgbxrPdaEPmdNMExMTNASuofc6z4CjIwgpdl/UFpYpbHaOg1imdD8DKaHAW3WWV4GYQ+RxbFersC5Bl0T6cYSo2yKV69Fs6iqlH3KQuvC1ocAjkw194Vh59CEgAwBrczRQzaCyZSk53aIm0lmmzfLA+aNxz23XVihLn9lAw2sB1metsyVP3zmTJ91Rn+qTvm1N4GXh6nAO5RVN9kUQaN9rMURwLsXINNVls0B4Gb9d4fB69ejc2o9VNx8B7u4DMr7Vh4ueqZCfm+ZWEnlwQOaLWiS8Xrt7jzg+w/AzbuuNTneZ9YyYCt9GG189KCT4yWJNCq1xN3Fg5+7hgV94ze/xOa1epO9NJEeYjB/0GS/BtPn4kcfE7Qh4vq6M5gkz6bJ7DdgDvBOTQHag/icVD3BrDKM+ZzAItLMJKXjo002fev3Dr6ibb0/mVdNi6jni1TqAd7b96xMbKQ0d8PBu66xL/4g26bz+pZL7lsA+w2UULQxC9sjvg5mmxgSpQFEsCaeJgVRIroXzLc3HMR+efwjjaiuJ123NKO0kfp0Vfe78KuPqBX/En/4oTVo+3ulTd+hL+P47u+OjVuK4WZpgoriNRPBe2pn1DY5SEDLW0LlX3IO+h1MdXbTF7QCdwQ1pXkVExFXtYBbZaCcwOyat0ZspKHgZmdPabOj9y+AJRW/YXUjURDOxD8N0RYZgAIXyXHoa6i4kf+jmzqiftlMlL3+nmIDke+nWt+E+qoJ3Lj/x6WtAeD5X/zaChcYd0INfKPUZg18U8O7yYxpOpjJNplUIvCOHIYWSZxmgDdBtFdbnai3GvxFsaNYhIDlNEL+7tb/4w8H/pFJLEomdx9ILXpQkxqB6n2CeMtQ+MLZpRhAHEbZ9DeAdQ+0TDlpHZg91DA/qOAFP6I9VTAjIlzjBvebcOtvnFgcsZk+keWh6rQ0WnGYh5lHX7nw1wfwN/7uYBqrh4fkyJEjnqaR2SxebwURhyArlPm6Dkg0wE0zoMqYrgKxgokCcac2AdhTZMQ9BF49pNZh/RRtr159XrFMZih+4gBeySEAuHU3SBsLoQqqJJSDTLsfrLyxiAI8CtrUIq2PvEmvMld1rbI+MjNE5qcBlzQigNaTa43Om1fSwI81LyY5LklC/i6FNMNEmLPHp/mOA04VJM5rRX8197i+2gwY3b5LmuYevFgU1KAJRa3TUECxI5vQy4GFYgUuMY8Vdd7ACmgItMp/i1xe78doCwB+cjEE4GYusFWRIw3tqtdvRO38+JcnP9nzv7vvC8AUC1CjR5a635zy4+RjXw/ATc2rvlUVR0A+mJkh6n+MqD8gdn8XF0byloatKWXF4LYiuVZPWzEjuL4GrY5ABIA6h58ngBmpYkxpACuzXVo/huD1u1Fy7ad+4J5HWocuoEXTq3lFGleTO3vKcqdOWJoihgjA119JA3t+F383ORExh6apbMqeRPMeEHgnsHTgLgMoj01mgkSFWSrhGExXnpvziHfHqr86JMvtPGzQwNsp7Rh/V0cAjEWjPG5q3373dbMnKZiRyazKJlJ1niLCJK7ja1YePLTCtRsUR1x38FYX5gkWMTJGVXAx1X5xWM4A4DisQgzOYcsADGhFPN/SvCnyu2oIyBynp5bpGZ7fJbqvqL4iveLuVsmqZlkVGOytLrDKXXxeCiQ6aC/HQOJbcwoBwFsjx54/ypYAWODFl1WRTAKTOa0oM108CogN799rKQj3h6DJVbpKgaHq4rKV7t6zAikqr2yCw7u+9AhzGs1LEClsL5ZAAPCLZdQXe7wWgJvAVQTfJ2WMUc9MQUYWHzpDvXma4hjNrBKwFRBqENlVQ3yJKLO6vgpXqSlWjpUSTY1J7eYkhl5b7ADgXluxDp3vKwP4SZMZ7eoTI5UeUlUV+eRhWD+VIlJ1l8Bbo666QkNA6eZdfN7rniISgbtM6Y2qGkfU5UREuHPh5g5JsDuHDQDujtxj961tAxhNqei0PjcIc4WCVSrOGD50ELZPRsE0q6qGNDZUKSJaEMUjVX6wwNiU2z46RWZzVVVd9NJGLYrNdE3spBPfEwoAju/abOuZtQ1gzGAHL7XkykOqBXBExR9UVY3Q4eUlkeR3NwD5uiYOPlryQJV4x0o36eS5/8BHqDh4VZaonGvQvG2veQBw2yJ7Mz/w0gCmmUGBJvW/RvXMk1RSUc+Mxs0eZzokLZkag9oqidSs3ypzjkpUVBWvE2G+eTsC7wpMJ9LiMa1w6pVVDgDulZXq8Hm+HIA/suJXtBPirw7SyaWhawpWeaCqWT+dGCe/q2AVAK9jMlfmH1oR0MpcVqqotrBAg8KaB7Ie99EGf/eVVzcA+JVF92Z98EUAzs/esIUPf2Ola7OkgKr4vBlaADGX0bxRcQaNDxCeqySzQQqoDvVMmaqqEuRvJWlecrtVgbegFFGTkicA97VvogDg1xbhm3GAFwG4QOBp8bef0Bl0F3K3pCUnJ5lZLBYTWjBpARxUsEr+LjOZvZ5Zc5mvzqF5b2Iy36clb8nH8Gxo8mCrtvjNEF1XryIAuKvij8+XvwjAih6vMEakSjAqQcul6piV302qOIOeaW8BpMlf7ztzhSLN1DNX0MK15WW6euDRUqBKZZFh2zIJBABvmSh7+0AvArCm8ZXuwgFFY/0gdEMJyiHV9N/K7+r9CkyeMpmdMwq/t7YofzeqqopYLEN+d6vvkgDgrZZojx7vRQDW0O06bJRqZhdvsjNrkN+VP1zD360sPHTzWm2AxauzBKtoRiiR31UTfvB1O3ZXBAB3TLS9deAXAVggFMGdg5GWaJnDClapJFJ+cREyfNGsVtS/u0JJJB1Gj6PMvSWKnjrbAOCeWq7OnewLAUyASpvzRSnKDFeVg1fN97NzUaT51i38XYJV0rqwWoSt8xIIAO68jHviG14WwOKKqpEHLt+ftyJc0SrOUKS5igmt/l2Z1B6oCmbztqx7APC2iDn+X6IZRD5yBsobDT/PMU5TNc0tRg5Ryzp4RXlDGaRKImUyl5jYUBPBueqZpXUDcLd1sQOAt1Xc8f2yCMCQ2u1uzoyCUmcMEKsBXzRg66SIWo33eYJUFTUiANyaSiLl7xLkAr0BwNu8xAHA2yzwuH5dNJWPRvwdk5Y+etR7ecfePm0p2gHl94rWtUwppMavljCdxZGsyQTq7Q2NCN1b1QDg7sk+Xt/s/Ng05FOkkWRmVJpxMzKlk5PjTqpeXVyyCuZyFfO59miRemjyu7BqhPxud5cxALi78o/Pt6u3Vz80IjiId4rL6qgNQW6vgdZ1jVydn49SRGWZzGoBDD5vtxcwALjbKxCn7xeAxWn1xOiTQQZtK7Ks1r91BaqodVan0TeaN04X0H/nEgDcf2u++RULxIpawbShqLSzaSi6rL5dzcClgMMHnYdo8+Zy3KZ3A4C3SdA99TWAWKFnsUd6CFrRZfib1bAQIs3xWskA4HitRzibIIG2JBAA3Ja4ws5BAvGSQABwvNYjnE2QQFsSCABuS1xh5yCBeEkgADhe6xHOJkigLQkEALclrrBzkEC8JBAAHK/1CGcTJNCWBAKA2xJX2DlIIF4SCACO13qEswkSaEsCAcBtiSvsHCQQLwkEAMdrPcLZBAm0JYEA4LbEFXYOEoiXBAKA47Ue4WyCBNqSQABwW+IKOwcJxEsCAcDxWo9wNkECbUkgALgtcYWdgwTiJYEA4HitRzibIIG2JBAA3Ja4ws5BAvGSQABwvNYjnE2QQFsSCABuS1xh5yCBeEkgADhe6xHOJkigLQkEALclrrBzkEC8JBAAHK/1CGcTJNCWBAKA2xJX2DlIIF4SCACO13qEswkSaEsCAcBtiSvsHCQQLwkEAMdrPcLZBAm0JYEA4LbEFXYOEoiXBAKA47Ue4WyCBNqSQABwW+IKOwcJxEsCAcDxWo9wNkECbUkgALgtcYWdgwTiJYG2AVycvWFL//OxFa9csfWVFduolON1ReFsggT6SAIDyZQN5XKWPnXSJn/yT5adOfbc1Q8UCgWNZveteB0Af/Q7K8/O2UatZhuN9dZb4TVIIEhgmyUwMDBoA4mEpaeP2Y4f/4Nlpo88dwZPAbhy74Gtfn7BqvcfPLdj+EOQQJBAdySQ2rvHxt5/24b37XnuBJ4CcKNUttryiq2XK8/tGP4QJBAk0B0JDKWHLTkxboMj6edO4CkAP/du+EOQQJBArCXw/3w5QArJYvdQAAAAAElFTkSuQmCC;" vertex="1" parent="EOUOIk4LcYDYwFllFdzi-1">
          <mxGeometry x="676" y="-266" width="85.43" height="84" as="geometry" />
        </mxCell>
        <mxCell id="tsI9sqQLdNqBEDmvCEG3-6" style="edgeStyle=orthogonalEdgeStyle;rounded=0;orthogonalLoop=1;jettySize=auto;html=1;" edge="1" parent="EOUOIk4LcYDYwFllFdzi-1" source="EOUOIk4LcYDYwFllFdzi-6" target="tsI9sqQLdNqBEDmvCEG3-2">
          <mxGeometry relative="1" as="geometry" />
        </mxCell>
        <mxCell id="tsI9sqQLdNqBEDmvCEG3-2" value="Amazon S3&lt;div&gt;Media Files&lt;/div&gt;" style="sketch=0;outlineConnect=0;fontColor=#232F3E;gradientColor=none;fillColor=#7AA116;strokeColor=none;dashed=0;verticalLabelPosition=bottom;verticalAlign=top;align=center;html=1;fontSize=12;fontStyle=0;aspect=fixed;pointerEvents=1;shape=mxgraph.aws4.bucket_with_objects;" vertex="1" parent="EOUOIk4LcYDYwFllFdzi-1">
          <mxGeometry x="678.5" y="-95" width="75" height="78" as="geometry" />
        </mxCell>
        <mxCell id="tsI9sqQLdNqBEDmvCEG3-9" style="edgeStyle=orthogonalEdgeStyle;rounded=0;orthogonalLoop=1;jettySize=auto;html=1;" edge="1" parent="EOUOIk4LcYDYwFllFdzi-1" source="tsI9sqQLdNqBEDmvCEG3-5" target="EOUOIk4LcYDYwFllFdzi-15">
          <mxGeometry relative="1" as="geometry">
            <Array as="points">
              <mxPoint x="1012" y="-134" />
              <mxPoint x="1012" y="-134" />
            </Array>
          </mxGeometry>
        </mxCell>
        <mxCell id="tsI9sqQLdNqBEDmvCEG3-10" value="transcrips" style="edgeLabel;html=1;align=center;verticalAlign=middle;resizable=0;points=[];" vertex="1" connectable="0" parent="tsI9sqQLdNqBEDmvCEG3-9">
          <mxGeometry x="0.0377" y="2" relative="1" as="geometry">
            <mxPoint x="1" as="offset" />
          </mxGeometry>
        </mxCell>
        <mxCell id="tsI9sqQLdNqBEDmvCEG3-5" value="Amazon Transcribe&amp;nbsp;&lt;div&gt;Streaming&lt;/div&gt;" style="sketch=0;points=[[0,0,0],[0.25,0,0],[0.5,0,0],[0.75,0,0],[1,0,0],[0,1,0],[0.25,1,0],[0.5,1,0],[0.75,1,0],[1,1,0],[0,0.25,0],[0,0.5,0],[0,0.75,0],[1,0.25,0],[1,0.5,0],[1,0.75,0]];outlineConnect=0;fontColor=#232F3E;fillColor=#01A88D;strokeColor=#ffffff;dashed=0;verticalLabelPosition=bottom;verticalAlign=top;align=center;html=1;fontSize=12;fontStyle=0;aspect=fixed;shape=mxgraph.aws4.resourceIcon;resIcon=mxgraph.aws4.transcribe;" vertex="1" parent="EOUOIk4LcYDYwFllFdzi-1">
          <mxGeometry x="950" y="-92" width="78" height="78" as="geometry" />
        </mxCell>
        <mxCell id="tsI9sqQLdNqBEDmvCEG3-13" value="3" style="ellipse;whiteSpace=wrap;html=1;aspect=fixed;rotation=0;gradientColor=#223548;strokeColor=none;gradientDirection=east;fillColor=#5b738b;rounded=0;pointerEvents=0;fontFamily=Helvetica;fontSize=16;fontColor=#FFFFFF;spacingTop=4;spacingBottom=4;spacingLeft=4;spacingRight=4;points=[];fontStyle=1" vertex="1" parent="EOUOIk4LcYDYwFllFdzi-1">
          <mxGeometry x="1073" y="-215" width="30" height="30" as="geometry" />
        </mxCell>
      </root>
    </mxGraphModel>
  </diagram>
</mxfile>
